<svg id="Icons" viewBox="0 0 512 512" xmlns="http://www.w3.org/2000/svg"><g><path d="m476.8274 9.512h-441.6579c-15.0039 0-27.1696 14.3094-27.1696 31.9647v356.0707c0 17.6546 12.1656 31.9646 27.1696 31.9646h441.6579c15.0096 0 27.1725-14.31 27.1725-31.9646v-356.0707c0-17.6552-12.1629-31.9647-27.1725-31.9647z" fill="#74d000"/><g fill="#59a800"><path d="m82.783 9.512h80.914v420h-80.914z"/><path d="m256 9.512h80.914v420h-80.914z"/><path d="m476.8274 9.512h-47.8544v420h47.8544c15.0096 0 27.1725-14.31 27.1725-31.9646v-356.0708c0-17.6552-12.1629-31.9647-27.1725-31.9647z"/></g><g fill="#ddffe5"><path d="m256 69.2298c4.418 0 8-3.582 8-8v-51.7178h-16v51.7178c0 4.418 3.582 8 8 8z"/><path d="m264 139.0316v-41.4551c0-4.418-3.582-8-8-8s-8 3.582-8 8v41.4849c-40.7534 4.1207-72.668 38.6279-72.668 80.4506s31.9146 76.3299 72.668 80.4506v35.1353c0 4.418 3.582 8 8 8s8-3.582 8-8v-35.1055c40.9396-3.94 73.0596-38.525 73.0596-80.4804s-32.1199-76.5404-73.0596-80.4804zm-72.6679 80.4804c0-32.989 24.7598-60.2846 56.668-64.3283v128.6566c-31.9081-4.0437-56.668-31.3393-56.668-64.3283zm72.6679 64.3781v-128.7562c32.0975 3.869 57.0596 31.2544 57.0596 64.3781s-24.962 60.5091-57.0596 64.3781z"/><path d="m82.7832 187.0647c-4.418 0-8 3.582-8 8v106.7578h-66.6855c-.033 0-.0648.0045-.0977.0049v15.9901c.0329.0004.0648.0049.0977.0049h74.6855c4.418 0 8-3.582 8-8v-114.7578c0-4.418-3.582-8-8-8z"/><path d="m82.7832 121.2015h-74.6855c-.033 0-.0648.0045-.0977.0049v15.9901c.0329.0004.0648.0049.0977.0049h66.6855v20.8115c0 4.418 3.582 8 8 8s8-3.582 8-8v-28.8115c0-4.418-3.582-8-8-8z"/><path d="m503.9024 137.2015c.033 0 .0647-.0045.0977-.0049v-15.9901c-.033-.0004-.0647-.0049-.0977-.0049h-74.6855c-4.418 0-8 3.582-8 8v180.6211c0 4.418 3.582 8 8 8h74.6855c.033 0 .0647-.0045.0977-.0049v-15.9901c-.033-.0004-.0647-.0049-.0977-.0049h-66.6855v-164.6211h66.6855z"/></g></g><circle cx="348.686" cy="409.803" fill="#fff" r="92.686"/><g><path d="m352.0459 384.369 22.5887 16.4116c.9893.7188 1.6915 1.7128 2.0599 2.8174l59.1413-25.4117c-12.7596-35.1644-46.1943-60.4084-85.613-61.05l-1.0978 66.1747c1.0299.0794 2.0439.4207 2.921 1.0579z" fill="#eee"/><path d="m345.3251 384.369c1.1267-.8186 2.4767-1.1599 3.7998-1.0579l1.0978-66.1747c-.512-.0084-1.0233-.0195-1.5373-.0195-40.2048 0-74.4257 25.6012-87.2628 61.3889l61.5762 22.0842 22.3262-16.221z" fill="#fafafa"/><path d="m376.6944 403.5981c.3778 1.1328.4045 2.3818.017 3.5744l-8.6281 26.5546c-.1554.4781-.3829.9149-.6465 1.3234l36.513 49.1635c22.7087-16.8931 37.4213-43.9333 37.4213-74.4115 0-11.1033-1.9551-21.7493-5.5353-31.616l-59.1413 25.4117z" fill="#e0e0e0"/><path d="m320.6597 407.1725c-.7654-2.3556.0731-4.936 2.0768-6.3918l.2624-.1906-61.5762-22.0842c-3.5071 9.7772-5.4227 20.3126-5.4227 31.2966 0 28.4838 12.8528 53.9618 33.0704 70.9639l40.022-47.6408-8.4326-25.953z" fill="#eee"/><path d="m362.6461 437.6775h-27.9211c-2.4767 0-4.6718-1.5948-5.4372-3.9504l-.1954-.6016-40.022 47.6408c16.116 13.5528 36.91 21.7217 59.6151 21.7217 20.7106 0 39.8332-6.7948 55.2643-18.274l-36.513-49.1635c-1.0349 1.6038-2.8167 2.627-4.7906 2.627z" fill="#c1c1c1"/></g><g fill="#252b61"><path d="m413.7316 388.8554 26.4326 6.0543c-2.3508-14.5483-8.0905-27.9536-16.3792-39.3989l-12.0698 29.6074c-.1193 1.5334.6693 2.9949 2.0164 3.7372z"/><path d="m385.9764 464.9085-3.1293 31.0513c15.3239-6.0815 28.6328-16.1241 38.6746-28.8747l-31.5678-5.3047c-1.8197.1846-3.3693 1.4032-3.9775 3.1282z"/><path d="m304.8214 457.6849-37.2189-2.9797c9.4051 16.9465 23.9612 30.631 41.5613 38.942l-.8411-32.165c-.3394-1.834-1.7008-3.3105-3.5013-3.7972z"/><path d="m289.1952 385.0417-10.8411-35.5687c-12.7595 14.8609-20.8915 33.7989-22.1608 54.6027l31.0493-14.1952c1.3485-1.2351 2.0662-3.0137 1.9526-4.8388z"/><path d="m352.1813 347.1588 31.6952-23.1077c-10.853-4.4589-22.7307-6.9341-35.191-6.9341-7.8298 0-15.4289.981-22.6914 2.809l21.058 26.5225c1.4351 1.1941 3.4238 1.4695 5.1293.7104z"/><path d="m374.6346 400.7807-22.5887-16.4116c-2.0038-1.4558-4.717-1.4558-6.7208 0l-22.5886 16.4116c-2.0038 1.4558-2.8422 4.0363-2.0768 6.3918l8.6281 26.5546c.7654 2.3555 2.9604 3.9504 5.4373 3.9504h27.9211c2.4767 0 4.6719-1.5948 5.4372-3.9504l8.6282-26.5546c.7653-2.3555-.0731-4.936-2.0768-6.3918z"/></g></svg>