<svg clip-rule="evenodd" fill-rule="evenodd" height="512" image-rendering="optimizeQuality" shape-rendering="geometricPrecision" text-rendering="geometricPrecision" viewBox="0 0 11111 11111" width="512" xmlns="http://www.w3.org/2000/svg"><g id="Layer_x0020_1"><circle cx="5556" cy="5556" fill="#1d81ce" r="5556"/><path d="m7256 5152v-522h-669v522zm-1705 1835c-54 0-106-4-158-11-3-1-6-1-9-2-400-63-727-348-850-725-1-4-2-8-4-12-31-101-48-208-48-319 0-190 50-369 138-524h-885-790v1936h183c67 0 121 54 121 121v291h87c67 0 121 55 121 121v292h4197v-292c0-66 55-121 121-121h87v-291c0-67 54-121 121-121h183v-1936h-789-895c87 155 137 334 137 524 0 342-161 647-411 843-6 5-13 10-19 14-178 133-399 212-638 212zm-560-1979c128-78 273-131 428-150 2 0 4-1 7-1s6-1 9-1v-226h-669v522h40c52-50 108-95 169-133l1-1c5-4 10-7 15-10zm686-151c157 19 305 72 434 152 5 3 9 6 14 9l3 1c60 39 116 83 168 133h49v-522h-668zm-126 235c-7 0-14 0-21 0h-1c-6 0-13 0-19 1h-4c-5 0-10 0-14 1h-5c-195 181-259 432-280 559 77 32 165 55 263 70 51-99 155-295 350-425 7-5 15-10 23-15 43-26 90-49 142-68-120-74-261-119-412-123h-2c-5 0-11 0-16 0h-1-1zm-461 140c-75 51-141 113-196 185 27 37 58 72 93 103 20-83 51-184 103-288zm-320 413c-30 86-46 178-46 273 0 72 9 141 26 207 251 138 563 170 858 88-17-122-92-208-129-245-182-23-329-69-447-129-8-3-16-7-23-12-100-54-178-117-239-182zm150 807c114 135 270 233 448 273 87-86 151-171 191-253-92 18-185 27-277 27-124 0-246-16-362-47zm759 283c131-20 252-72 355-146 154-267 114-530 51-704-56-159-140-277-194-339-102 90-164 207-207 288 70 79 160 217 169 402 1 23 1 46-1 69v6c-10 142-68 284-173 424zm691-708c5-36 8-72 8-109 0-189-65-364-172-503-34 2-67 8-97 15 76 97 154 231 205 376 23 65 44 139 56 221zm-3667 1303v-2057-764-910-764c0-67 54-121 121-121h911 910 910 1 910 910 1 910c67 0 121 54 121 121v763 1 1 909 1 762 1 2057h183c67 0 121 54 121 121v291h87c67 0 121 55 121 121v292h70c67 0 121 54 121 121s-54 121-121 121h-191-1024-4439-1024-191c-67 0-121-54-121-121s54-121 121-121h70v-292c0-66 55-121 121-121h87v-291c0-67 54-121 121-121zm1821-2178v-522h-668v522zm-910 0v-522h-669v522zm-669-763h669v-669h-669zm0-911h669v-522h-669zm911-522v522h668v-522zm910 0v522h669v-522zm911 0v522h668v-522zm910 0v522h669v-522zm910 0v522h669v-522zm669 764h-669v669h669zm0 910h-669v522h669zm-4310-241h668v-669h-668zm910 0h669v-669h-669zm911 0h668v-669h-668zm-3244 3766h782v-171h-782zm4823-3766v-669h-669v669zm848 3353h366v-170h-183-183zm-208 413h782v-171h-782zm-5255-413h366v-170h-183-183z" fill="#f5f5f5"/></g></svg>