<svg enable-background="new 0 0 512 512" viewBox="0 0 512 512" xmlns="http://www.w3.org/2000/svg"><g id="_x33_0_Cricket_Stump"><g><path d="m490.323 497.571h-468.648l93.633-319.454h281.382z" fill="#87d3a2"/><path d="m409.445 221.6h-194.827c-36.529 0-68.687 24.081-78.966 59.135l-63.585 216.836h-50.392l93.633-319.454h281.382z" fill="#fff" opacity=".2"/><path d="m211.26 178.117v58.992c0 17.683-14.398 32.081-32.081 32.081s-32.032-14.398-32.032-32.081v-58.992z" opacity=".1"/><path d="m196.742 31.986v205.145c0 9.697-7.861 17.558-17.558 17.558-9.697 0-17.558-7.861-17.558-17.558v-205.145c0-9.697 7.861-17.558 17.558-17.558 9.697.001 17.558 7.861 17.558 17.558z" fill="#f7d100"/><path d="m288.032 178.117v58.992c0 17.683-14.35 32.081-32.032 32.081s-32.032-14.398-32.032-32.081v-58.992z" opacity=".1"/><path d="m273.557 31.986v205.145c0 9.697-7.861 17.558-17.558 17.558-9.697 0-17.558-7.861-17.558-17.558v-205.145c0-9.697 7.861-17.558 17.558-17.558 9.697.001 17.558 7.861 17.558 17.558z" fill="#f7d100"/><path d="m364.851 178.117v58.992c0 17.683-14.35 32.081-32.032 32.081-17.683 0-32.081-14.398-32.081-32.081v-58.992z" opacity=".1"/><path d="m350.372 31.986v205.145c0 9.697-7.861 17.558-17.558 17.558-9.697 0-17.558-7.861-17.558-17.558v-205.145c0-9.697 7.861-17.558 17.558-17.558 9.697.001 17.558 7.861 17.558 17.558z" fill="#f7d100"/><path d="m294.363 435.402c-33.446 21.21-77.045 13.278-101.051-17.11-1.636-2.073-3.175-4.247-4.618-6.523-1.452-2.29-2.772-4.624-3.949-6.987-17.246-34.696-5.821-77.499 27.611-98.7 33.404-21.182 76.993-13.265 101.022 17.129 1.636 2.073 3.184 4.262 4.636 6.552 1.443 2.275 2.753 4.595 3.931 6.959 17.252 34.67 5.836 77.488-27.582 98.68z" fill="#f55766"/><path d="m206.472 413.932c1.165 2.381 2.487 4.699 3.937 7.004 1.452 2.279 2.991 4.438 4.639 6.506 5.65 7.125 12.341 13.046 19.759 17.585-15.982-3.98-30.713-13.1-41.482-26.746-1.648-2.068-3.186-4.227-4.639-6.506-1.45-2.304-2.772-4.623-3.937-7.004-17.255-34.683-5.832-77.477 27.618-98.691 25.572-16.236 57.131-15.382 81.299-.436-19.627-4.926-41.16-2.107-59.576 9.597-33.451 21.214-44.873 64.009-27.618 98.691z" fill="#fff" opacity=".2"/><path d="m321.991 336.792-128.634 81.571c-1.636-2.073-3.175-4.247-4.618-6.523-1.452-2.29-2.771-4.624-3.949-6.987l128.634-81.571c1.636 2.073 3.184 4.262 4.636 6.552 1.443 2.274 2.754 4.594 3.931 6.958z" fill="#fdfdff"/><g fill="#2e2e6d"><path d="m494.217 500.468c.911-1.217 1.194-2.798.769-4.256l-93.68-319.44c-.604-2.057-2.491-3.473-4.638-3.473h-41.463v-141.314c0-12.343-10.045-22.388-22.393-22.388-12.343 0-22.388 10.045-22.388 22.388v141.315h-32.037v-141.315c0-12.343-10.045-22.388-22.388-22.388s-22.388 10.045-22.388 22.388v141.315h-32.041v-141.315c0-12.343-10.045-22.388-22.388-22.388s-22.388 10.045-22.388 22.388v141.315h-41.464c-2.147 0-4.034 1.415-4.638 3.473l-93.68 319.44c-.425 1.458-.142 3.039.769 4.256.915 1.217 2.345 1.934 3.869 1.934h468.696c1.526 0 2.955-.717 3.871-1.935zm-174.13-468.483c0-7.016 5.709-12.725 12.725-12.725 7.021 0 12.73 5.709 12.73 12.725v205.147c0 7.016-5.709 12.725-12.73 12.725-7.016 0-12.725-5.709-12.725-12.725zm-76.812 0c0-7.016 5.709-12.725 12.725-12.725s12.725 5.709 12.725 12.725v205.147c0 7.016-5.709 12.725-12.725 12.725s-12.725-5.709-12.725-12.725zm-76.817 0c0-7.016 5.709-12.725 12.725-12.725s12.725 5.709 12.725 12.725v205.147c0 7.016-5.709 12.725-12.725 12.725s-12.725-5.709-12.725-12.725zm-138.356 460.755 90.849-309.778h37.845v54.17c0 12.343 10.045 22.388 22.388 22.388s22.388-10.045 22.388-22.388v-54.17h32.041v54.17c0 12.343 10.045 22.388 22.388 22.388s22.388-10.045 22.388-22.388v-54.17h32.037v54.17c0 12.343 10.045 22.388 22.388 22.388 12.348 0 22.393-10.045 22.393-22.388v-54.17h37.845l90.849 309.778z"/><path d="m322.144 327.254c-.006-.009-.014-.018-.019-.028-.012-.018-.021-.038-.032-.057-24.259-38.237-74.37-49.234-112.321-25.167-38.282 24.274-49.224 74.478-25.157 112.35.003.005.006.008.009.013.014.022.024.045.038.067 24.08 37.958 74.142 49.235 112.288 25.049 38.344-24.314 49.108-74.543 25.194-112.227zm-127.5 84.568c-.62-.888-2.88-4.447-3.396-5.341l120.896-76.665c.618.889 2.857 4.431 3.384 5.351zm20.298-101.657c29.446-18.676 67.557-13.62 91.115 12.068l-119.123 75.539c-.565-1.379-1.061-2.77-1.535-4.166l14.015-8.889c2.255-1.43 2.925-4.416 1.496-6.667-1.43-2.26-4.421-2.925-6.667-1.496l-11.471 7.275c-5.28-28.176 6.787-57.57 32.17-73.664zm76.836 121.154c-25.398 16.106-57.134 14.491-80.362-2.304l11.453-7.264c2.255-1.43 2.925-4.416 1.496-6.667-1.43-2.26-4.421-2.925-6.667-1.496l-14.001 8.88c-1.021-.986-2.031-1.983-3.002-3.038l119.133-75.547c12.978 31.896 1.521 68.684-28.05 87.436z"/><path d="m282.983 372.19-16.325 10.352c-2.255 1.43-2.925 4.416-1.496 6.667 1.437 2.269 4.434 2.914 6.667 1.496l16.325-10.352c2.255-1.43 2.925-4.416 1.496-6.667-1.434-2.26-4.421-2.925-6.667-1.496z"/><path d="m250.338 392.889-16.32 10.352c-2.255 1.43-2.925 4.416-1.496 6.667 1.431 2.261 4.426 2.919 6.667 1.496l16.32-10.352c2.255-1.43 2.925-4.416 1.496-6.667-1.43-2.26-4.416-2.926-6.667-1.496z"/><path d="m315.624 351.491-16.32 10.347c-2.255 1.43-2.925 4.416-1.496 6.667 1.437 2.269 4.434 2.914 6.667 1.496l16.32-10.347c2.255-1.43 2.925-4.416 1.496-6.667-1.43-2.255-4.412-2.925-6.667-1.496z"/><path d="m281.021 332.968 16.32-10.347c2.255-1.43 2.925-4.416 1.496-6.667-1.425-2.251-4.407-2.925-6.667-1.496l-16.32 10.347c-2.255 1.43-2.925 4.416-1.496 6.667 1.436 2.269 4.434 2.914 6.667 1.496z"/><path d="m248.375 353.671 16.325-10.351c2.255-1.43 2.925-4.416 1.496-6.667-1.43-2.26-4.416-2.925-6.667-1.496l-16.325 10.352c-2.255 1.43-2.925 4.416-1.496 6.667 1.437 2.269 4.435 2.914 6.667 1.495z"/><path d="m215.735 374.37 16.32-10.352c2.255-1.43 2.925-4.416 1.496-6.667-1.43-2.26-4.421-2.925-6.667-1.496l-16.32 10.352c-2.255 1.43-2.925 4.416-1.496 6.667 1.431 2.261 4.426 2.92 6.667 1.496z"/></g></g></g><g id="Layer_1"/></svg>