<svg id="Travel" height="512" viewBox="0 0 64 64" width="512" xmlns="http://www.w3.org/2000/svg"><g fill="#78b9eb"><path d="m52 39.8c3.98 0 5.41-3.34 8.19-3.8h.81v9h-.81c-2.78.46-4.21 3.8-8.19 3.8a7 7 0 0 1 -4-1.11v-9a7.027 7.027 0 0 0 4 1.11z"/><path d="m3.8 36c2.78.46 4.21 3.8 8.19 3.8a7.011 7.011 0 0 0 4.01-1.12v9a7.011 7.011 0 0 1 -4.01 1.12c-3.98 0-5.41-3.34-8.19-3.8h-.8v-9z"/><path d="m52 48.8c3.98 0 5.41-3.34 8.19-3.8h.81v15h-58v-15h.8c2.78.46 4.21 3.8 8.19 3.8a7.011 7.011 0 0 0 4.01-1.12c1.68-1.06 2.85-2.48 5.99-2.48a8.326 8.326 0 0 1 .89.04c4.13.4 4.43 3.56 9.11 3.56s4.98-3.17 9.13-3.56a7.947 7.947 0 0 1 .87-.04c3.16 0 4.32 1.43 6.01 2.49a7 7 0 0 0 4 1.11z"/><path d="m41.12 45.24c-4.15.39-4.44 3.56-9.13 3.56s-4.98-3.16-9.11-3.56l.12-.24-1.15-2.29a8.125 8.125 0 0 1 -.85-3.62v-.3a9.3 9.3 0 0 1 .73-3.36 3.789 3.789 0 0 0 .27-1.43v-4h4v1a6.013 6.013 0 0 0 5.84 6 6.208 6.208 0 0 0 6.16-6.25v-.75h4v4a3.789 3.789 0 0 0 .27 1.43 9.3 9.3 0 0 1 .73 3.36v.3a8.052 8.052 0 0 1 -.85 3.61l-1.15 2.3z"/><path d="m36 8a3 3 0 0 0 -3 3h-2a3 3 0 0 0 -6 0h-1a8 8 0 1 1 16 0h-1a3 3 0 0 0 -3-3z"/></g><path d="m36 17v1a1 1 0 0 1 -2 0v-1a1 1 0 0 1 2 0z"/><path d="m30 17v1a1 1 0 0 1 -2 0v-1a1 1 0 0 1 2 0z"/><path d="m61 35h-.81a.86.86 0 0 0 -.16.01 8.14 8.14 0 0 0 -3.56 1.87 6.977 6.977 0 0 1 -4.47 1.92 6.134 6.134 0 0 1 -3-.69v-2.11a7.008 7.008 0 0 0 -7-7h-6v-1.95a9.008 9.008 0 0 0 5-8.05v-1h1a2.006 2.006 0 0 0 2-2v-2a2.006 2.006 0 0 0 -2-2h-1v-1a9 9 0 0 0 -18 0v1h-1a2.006 2.006 0 0 0 -2 2v2a2.006 2.006 0 0 0 2 2h1v1a9.008 9.008 0 0 0 5 8.05v1.95h-6a7.008 7.008 0 0 0 -7 7v2.1a5.979 5.979 0 0 1 -3.01.7 6.977 6.977 0 0 1 -4.47-1.92 8.14 8.14 0 0 0 -3.56-1.87.86.86 0 0 0 -.16-.01h-.8a1 1 0 0 0 -1 1v25a1 1 0 0 0 1 1h58a1 1 0 0 0 1-1v-25a1 1 0 0 0 -1-1zm-20-21h1v2h-1zm-18 2h-1v-2h1zm20.2 19.05a2.729 2.729 0 0 1 -.2-1.05v-2.9a5.017 5.017 0 0 1 4 4.9v9.78a8.163 8.163 0 0 0 -4.49-1.56l.53-1.07a8.949 8.949 0 0 0 .96-4.06v-.3a10.165 10.165 0 0 0 -.8-3.74zm-18.2-16.05v-5.38a4 4 0 1 0 .87-5.99 6.991 6.991 0 0 1 12.26 0 4 4 0 1 0 .87 5.99v5.38a7 7 0 0 1 -14 0zm1-8a2 2 0 1 1 2 2 2.006 2.006 0 0 1 -2-2zm12 0a2 2 0 1 1 -2-2 2.006 2.006 0 0 1 2 2zm-9 20a1 1 0 0 0 1-1v-2.23a8.811 8.811 0 0 0 4 0v2.23a1 1 0 0 0 1 1h1.97a5.338 5.338 0 0 1 -1.6 3.58 4.776 4.776 0 0 1 -3.5 1.42 5 5 0 0 1 -4.87-5zm-7 7.79a8.118 8.118 0 0 1 .66-2.98 4.937 4.937 0 0 0 .34-1.81v-3h2a7.021 7.021 0 0 0 6.82 7 6.814 6.814 0 0 0 4.95-1.99 7.432 7.432 0 0 0 2.23-5.01h2v3a4.754 4.754 0 0 0 .34 1.79 8.254 8.254 0 0 1 .66 3v.3a7.055 7.055 0 0 1 -.74 3.16l-1.06 2.12a9 9 0 0 0 -3.79 1.82 6.872 6.872 0 0 1 -8.84 0 8.973 8.973 0 0 0 -3.77-1.82l-1.05-2.1a7.047 7.047 0 0 1 -.75-3.18zm-5-2.79a5.017 5.017 0 0 1 4-4.9v2.9a2.908 2.908 0 0 1 -.2 1.07 10.03 10.03 0 0 0 -.8 3.72v.3a9.021 9.021 0 0 0 .96 4.07l.53 1.06a8.086 8.086 0 0 0 -4.49 1.55zm-13 1.07a7.717 7.717 0 0 1 2.31 1.39 8.848 8.848 0 0 0 5.68 2.34 8.286 8.286 0 0 0 3.01-.51v6.82a6.113 6.113 0 0 1 -3.01.69 6.977 6.977 0 0 1 -4.47-1.92 8.138 8.138 0 0 0 -3.52-1.86zm56 22.93h-56v-13.93a7.717 7.717 0 0 1 2.31 1.39 8.848 8.848 0 0 0 5.68 2.34 8.516 8.516 0 0 0 5.58-1.99 6.872 6.872 0 0 1 8.84 0 8.818 8.818 0 0 0 11.16 0 6.872 6.872 0 0 1 8.84 0 8.525 8.525 0 0 0 5.59 1.99 8.848 8.848 0 0 0 5.68-2.34 7.88 7.88 0 0 1 2.32-1.39zm0-15.98a8.069 8.069 0 0 0 -3.53 1.86 6.977 6.977 0 0 1 -4.47 1.92 6.071 6.071 0 0 1 -3-.69v-6.81a8.467 8.467 0 0 0 3 .5 8.848 8.848 0 0 0 5.68-2.34 7.88 7.88 0 0 1 2.32-1.39z" fill="#006df0"/><path d="m29 16a1 1 0 0 0 -1 1v1a1 1 0 0 0 2 0v-1a1 1 0 0 0 -1-1z" fill="#006df0"/><path d="m35 19a1 1 0 0 0 1-1v-1a1 1 0 0 0 -2 0v1a1 1 0 0 0 1 1z" fill="#006df0"/></svg>