<svg id="Flat" height="512" viewBox="0 0 512 512" width="512" xmlns="http://www.w3.org/2000/svg"><path d="m298.11 434.02h-84.22c.69-33.44 14.08-45.72 16.1-82.83.06-1.12.11-2.24.17-3.35.24-5.8.33-11.36.36-14.88.02-2.33.02-3.76.02-3.76h50.92s0 1.43.02 3.76c.03 3.52.12 9.08.36 14.88.06 1.11.11 2.23.17 3.35 2.02 37.11 15.41 49.39 16.1 82.83z" fill="#5593d8"/><path d="m281.84 347.84h-51.68c.24-5.8.33-11.36.36-14.88h50.96c.03 3.52.12 9.08.36 14.88z" fill="#2673c6"/><path d="m211.35 445.649a7.582 7.582 0 0 1 0-15.123h89.3a7.582 7.582 0 0 1 0 15.123z" fill="#ffebdc"/><path d="m297.26 256v.07a41.881 41.881 0 0 1 -12.14 29.47 25.073 25.073 0 0 0 -7.34 17.78v9.72h-43.59v-9.72a25.083 25.083 0 0 0 -7.35-17.78 41.915 41.915 0 0 1 -12.13-29.47v-.07a41.927 41.927 0 0 1 2.46-14.27c5.74-15.88 20.91-26.66 38.81-26.66s33.07 10.78 38.82 26.66a41.927 41.927 0 0 1 2.46 14.27z" fill="#5593d8"/><rect fill="#ffebdc" height="8.759" rx="4.379" width="58.221" x="226.89" y="304.954"/><rect fill="#65a3e0" height="20.553" rx="10.276" width="69.641" x="221.18" y="312.998"/><circle cx="256" cy="68.806" fill="#ffc897" r="10.858"/><path d="m277.4 107.354a11.058 11.058 0 0 0 -3.377.531 33.869 33.869 0 0 1 -4.312 1.059 1.137 1.137 0 0 1 -1.283-1.463 27.177 27.177 0 0 1 1.341-3.343 11.092 11.092 0 0 0 .853-7.712 11.21 11.21 0 0 0 -10.856-8.421h-7.191a11.529 11.529 0 0 0 -9.45 4.7 11.1 11.1 0 0 0 -.95 11.327 27.055 27.055 0 0 1 1.392 3.448 1.136 1.136 0 0 1 -1.282 1.466 33.71 33.71 0 0 1 -4.31-1.058 11.046 11.046 0 0 0 -11.541 3.067 11.628 11.628 0 0 0 -2.965 7.928v6.3a11.171 11.171 0 0 0 11.131 11.183 11.058 11.058 0 0 0 3.377-.531 33.791 33.791 0 0 1 4.386-1.072 1.129 1.129 0 0 1 1.3 1.382c-1.77 6.731-4.29 11.764-7.5 14.98a4.49 4.49 0 0 0 3.175 7.672h33.179a4.642 4.642 0 0 0 3.693-1.711 4.5 4.5 0 0 0 -.355-5.959c-3.211-3.211-5.73-8.237-7.5-14.956a1.133 1.133 0 0 1 1.291-1.409 33.976 33.976 0 0 1 4.385 1.072 11.044 11.044 0 0 0 3.378.532 11.172 11.172 0 0 0 11.128-11.189v-6.633a11.172 11.172 0 0 0 -11.137-11.19z" fill="#ffc897"/><path d="m320.283 170.426v.09a19.573 19.573 0 0 1 -5.92 14c-4.807 4.673-11.524 11.682-16.275 18.556-3.348 4.852-5.718 9.615-5.718 13.434h-72.74c0-3.819-2.37-8.582-5.718-13.434-4.751-6.874-11.468-13.883-16.275-18.556a19.573 19.573 0 0 1 -5.92-14v-.09a19.491 19.491 0 0 1 19.489-19.488h89.577a19.494 19.494 0 0 1 19.5 19.488z" fill="#ffb743"/><path d="m297.26 256v.07h-82.55v-.07a41.927 41.927 0 0 1 2.46-14.27h77.63a41.927 41.927 0 0 1 2.46 14.27z" fill="#2673c6"/><path d="m298.088 203.067c-3.348 4.852-5.718 9.615-5.718 13.434h-72.74c0-3.819-2.37-8.582-5.718-13.434z" fill="#ff8243"/><path d="m298.024 244.831h-84.048a6.74 6.74 0 0 1 0-13.479h84.048a6.74 6.74 0 0 1 0 13.479z" fill="#ffebdc"/><path d="m298.024 211.58h-84.048a10.4 10.4 0 1 0 0 20.8h84.048a10.4 10.4 0 1 0 0-20.8z" fill="#ff5a7a"/><circle cx="256" cy="176.104" fill="#fff" r="8.705"/><circle cx="292.462" cy="176.104" fill="#fff" r="8.705"/><circle cx="219.538" cy="176.104" fill="#fff" r="8.705"/><g fill="#ffebdc"><path d="m256 33.271a6 6 0 0 1 -6-6v-15.9a6 6 0 1 1 12 0v15.9a6 6 0 0 1 -6 6z"/><path d="m217.753 55.608a5.971 5.971 0 0 1 -2.941-.774l-13.852-7.811a6 6 0 0 1 5.894-10.453l13.852 7.811a6 6 0 0 1 -2.953 11.227z"/><path d="m294.247 55.608a6 6 0 0 1 -2.953-11.227l13.852-7.811a6 6 0 0 1 5.894 10.453l-13.852 7.811a5.971 5.971 0 0 1 -2.941.774z"/></g><path d="m325.9 468.274a18.177 18.177 0 0 1 -18.2 18.185h-103.4a18.179 18.179 0 0 1 -18.2-18.185 23.509 23.509 0 0 1 23.521-23.521h92.756a23.521 23.521 0 0 1 23.523 23.521z" fill="#65a3e0"/><rect fill="#ff5a7a" height="17.434" rx="8.596" width="142.878" x="184.561" y="483.298"/></svg>