<svg height="512" viewBox="0 0 512 512" width="512" xmlns="http://www.w3.org/2000/svg"><g id="filled_outline" data-name="filled outline"><ellipse cx="256" cy="456" fill="#666" rx="104" ry="32"/><path d="m152 408h208v48h-208z" fill="#666"/><path d="m360 408c0 14.053-29.439 25.989-70.376 30.291-4.18.439-8.48-6.83-12.881-7.315-6.703-.738-13.643 5.024-20.743 5.024-7.952 0-15.695-5.728-23.136-5.078-4.525.395-8.939 7.56-13.219 7.068-39.509-4.536-67.645-16.252-67.645-29.99 0-17.673 46.562-32 104-32s104 14.327 104 32z" fill="#b3b3b3"/><g fill="#f4bb6e"><path d="m96.6 120.6h132a0 0 0 0 1 0 0v24a0 0 0 0 1 0 0h-132a12 12 0 0 1 -12-12 12 12 0 0 1 12-12z" transform="matrix(.707 .707 -.707 .707 139.632 -71.897)"/><path d="m240.882 153 10.509-1h121.491a12 12 0 0 1 12 12 12 12 0 0 1 -12 12h-132z"/><path d="m248.881 408.046a12.352 12.352 0 0 1 -13.442-11.157l-11.439-123.117 31.863-2.961 4.221 124.517a12.352 12.352 0 0 1 -11.203 12.718z"/><path d="m409.216 217.937a12.353 12.353 0 0 1 -9.7 14.531l-121.256 24.19-6.26-31.382 123.4-17.157a12.352 12.352 0 0 1 13.816 9.818z"/></g><ellipse cx="235.084" cy="251.929" fill="#e6e6e6" rx="109.022" ry="47.697" transform="matrix(.978 -.209 .209 .978 -47.49 54.738)"/><path d="m235.7 232h-15.4a23.4 23.4 0 0 1 -23.169-20.094l-3.288-23.02a55.135 55.135 0 0 1 2.275-25.235l2.412-7.236a6.457 6.457 0 0 1 6.124-4.415h46.692a6.457 6.457 0 0 1 6.126 4.415l2.412 7.236a55.135 55.135 0 0 1 2.275 25.235l-3.288 23.02a23.4 23.4 0 0 1 -23.171 20.094z" fill="#ccc"/><circle cx="228" cy="84" fill="#b58750" r="44"/><path d="m216 118h24a0 0 0 0 1 0 0v34a12 12 0 0 1 -12 12 12 12 0 0 1 -12-12v-34a0 0 0 0 1 0 0z" fill="#f4bb6e"/><ellipse cx="226" cy="127" fill="#d6a061" rx="12" ry="16"/><circle cx="272" cy="48" fill="#b58750" r="24"/><path d="m184 80h35.785a20.215 20.215 0 0 1 20.215 20.215v15.776a20.008 20.008 0 0 1 -20.008 20.009h-6.9a29.09 29.09 0 0 1 -29.092-29.09v-26.91a0 0 0 0 1 0 0z" fill="#f4bb6e"/><path d="m423.605 216.376a20.371 20.371 0 0 0 -22.766-16.18l-63.132 8.775c-13.782-11.437-37.923-17.451-67.913-16.954l.286-2c.284-2 .447-4.006.539-6.018h102.261a20 20 0 0 0 0-40h-124.88v-11.999a52.218 52.218 0 0 0 32-48c0-1.672-.087-3.324-.242-4.956a32 32 0 1 0 -36.646-44.8 52.005 52.005 0 0 0 -66.9 45.035c-.03.333-.212 2.126-.212 2.718v24.91a37.14 37.14 0 0 0 32 36.732v.361h-3.35a14.436 14.436 0 0 0 -10.264 4.281l-72.252-72.261a20 20 0 0 0 -28.281 28.3l93.128 93.128 1.457 10.2c-20.084 7.519-36.975 17.061-49.1 27.8-10.528 9.325-22.316 24-18.688 40.962 4.766 22.262 34.725 35.481 76.462 35.48a220.073 220.073 0 0 0 22.284-1.174l5.46 58.721c-20.314 1.915-38.69 5.721-52.4 10.9-23.518 8.894-28.456 19.953-28.456 27.663v48c0 15.837 19.635 25.2 36.107 30.272 20.385 6.273 47.338 9.728 75.893 9.728s55.508-3.455 75.893-9.728c16.472-5.072 36.107-14.435 36.107-30.272v-48c0-25.433-50.894-38.191-100.835-39.816l-2.247-66.384c37.631-10.972 67.2-29.194 79.254-48.825l63.459-12.664a20.391 20.391 0 0 0 15.974-23.935zm-46.725-52.376a3.984 3.984 0 0 1 -4 4h-103.545a63.054 63.054 0 0 0 -1.865-6.88l-.37-1.12h105.78a4 4 0 0 1 4 4zm-104.88-132a15.991 15.991 0 0 1 3.793 31.527 52.3 52.3 0 0 0 -18.272-22.3 16.016 16.016 0 0 1 14.479-9.227zm-44 16a36 36 0 0 1 20 65.931v-13.711a28.251 28.251 0 0 0 -28.22-28.22h-25.759a35.787 35.787 0 0 1 33.979-24zm-36 58.91v-18.91h27.78a12.233 12.233 0 0 1 12.22 12.22v47.78a4 4 0 0 1 -8 0v-12a8 8 0 0 0 -8-8h-2.91a21.114 21.114 0 0 1 -21.09-21.09zm13.77 53.09h6.268a19.924 19.924 0 0 0 31.924 0h6.268l2.06 6.179a47.381 47.381 0 0 1 1.95 21.58l-3.289 23.017a15.483 15.483 0 0 1 -15.251 13.224h-15.4a15.4 15.4 0 0 1 -15.128-12.529l-.024-.118q-.057-.281-.1-.575l-3.293-23.037a43.832 43.832 0 0 1 -.415-4.6 46.723 46.723 0 0 1 2.368-16.964zm-100.617-72.64a4.023 4.023 0 0 1 5.68-.013l76.779 76.788a62.437 62.437 0 0 0 -1.863 9.45l-80.582-80.585a4.005 4.005 0 0 1 -.014-5.64zm143.894 218.509 3.038 89.736a4.376 4.376 0 0 1 -3.793 4.458l-.145.02h-.049a3.855 3.855 0 0 1 -.925-.025 4.362 4.362 0 0 1 -3.767-3.913l-8.142-87.582c3.842-.641 7.681-1.361 11.476-2.176.77-.161 1.537-.346 2.307-.518zm-89.047 150.131v-26.157c14.936 8.631 37.021 13.046 51.434 15.135l-4.566 16.805a4.829 4.829 0 0 1 -9.212-2.437 8 8 0 1 0 -15.927-1.522 20.7 20.7 0 0 0 3.213 13.194l-.13-.038c-20.354-6.264-24.812-12.937-24.812-14.98zm167.547 14.866a20.652 20.652 0 0 0 2.724-12.408 8 8 0 1 0 -15.927 1.521 4.829 4.829 0 0 1 -9.212 2.437l-4.732-17.416c14.456-2.087 36.624-6.5 51.6-15.158v26.158c0 2.031-4.412 8.636-24.453 14.866zm24.453-62.866c0 1.752-3.088 6.38-14.774 11.357-10.323 4.4-24.769 7.928-41.181 10.111a20.819 20.819 0 0 0 -39.95 9.974 8 8 0 1 0 15.927-1.52 4.83 4.83 0 0 1 9.213-2.438l8.582 31.588q.1.372.237.732a20.756 20.756 0 0 0 7.3 9.5 318.134 318.134 0 0 1 -83.475-.1 20.785 20.785 0 0 0 8.068-10.028q.137-.36.237-.732l8.582-31.587a4.829 4.829 0 0 1 9.213 2.438 8 8 0 1 0 15.927 1.519 20.829 20.829 0 0 0 -40.206-9.375c-16.329-2.186-30.7-5.713-40.971-10.095-11.651-4.976-14.729-9.596-14.729-11.344 0-2.022 3.786-7.279 18.117-12.7 12.413-4.695 29.321-8.164 48.216-9.941l1.141 12.262a20.438 20.438 0 0 0 17.614 18.3 19.51 19.51 0 0 0 2.647.18q.924 0 1.845-.086c.264-.023.527-.055.791-.092a20.247 20.247 0 0 0 17.7-20.867l-.367-10.85c58.27 1.953 84.296 17.725 84.296 23.794zm-20.141-165.738c-8.784 17.507-39.806 35.91-77.185 45.791-3.695.973-7.494 1.88-11.293 2.695-5.9 1.267-11.9 2.318-17.86 3.125-51.556 7.01-85.859-5.079-89.228-20.817-3.276-15.311 20.511-36.1 56.213-49.849a31.421 31.421 0 0 0 27.794 16.793h15.4a31.561 31.561 0 0 0 31.089-26.957l.71-4.965c28.488-.808 51.868 4.762 61.9 14.948a15.875 15.875 0 0 1 4.465 7.781c.746 3.465.071 7.319-2.005 11.455zm72.635-17.637-54.38 10.852a29.176 29.176 0 0 0 -1.7-11.84l54.632-7.593a4.353 4.353 0 0 1 1.453 8.581z"/></g></svg>