<svg version="1.1" id="Capa_1" xmlns="http://www.w3.org/2000/svg" xmlns:xlink="http://www.w3.org/1999/xlink" x="0px" y="0px" viewBox="0 0 510 510" style="enable-background:new 0 0 510 510;" xml:space="preserve">
<g>
	<g>
		<circle style="fill:#F7B073;" cx="297.932" cy="117.679" r="47.285"/>
		<path style="fill:#F7B073;" d="M461.186,164.453c-7.175-11.144-22.026-14.364-33.172-7.188l-50.825,32.722&#10;&#9;&#9;&#9;c-16.004,10.304-36.749,10.403-52.85,0.252l-121.38-76.522c-32.921-20.754-74.904-19.901-106.953,2.176l-52.224,35.974&#10;&#9;&#9;&#9;c-10.916,7.519-13.669,22.463-6.15,33.379c7.519,10.917,22.463,13.669,33.38,6.15l52.224-35.974&#10;&#9;&#9;&#9;c16.219-11.173,37.466-11.605,54.126-1.101l23.727,14.582l-9.636-5.7l-65.595,104.087l78.826,49.675l64.659-102.603l29.399,16.48&#10;&#9;&#9;&#9;c17.918,11.296,38.752,16.17,59.178,14.633c15.844-1.192,31.441-6.237,45.255-15.131l50.825-32.722&#10;&#9;&#9;&#9;C465.143,190.449,468.361,175.598,461.186,164.453z"/>
		<path style="fill:#67CCD1;" d="M500,209.065c-38.558,19.279-83.942,19.279-122.5,0l0,0c-38.558-19.279-83.942-19.279-122.5,0&#10;&#9;&#9;&#9;c-38.558,19.279-83.942,19.279-122.5,0l0,0c-38.558-19.279-83.942-19.279-122.5,0v230.541h490L500,209.065z"/>
		<path style="fill:#27A2CC;" d="M218.979,324.562c0-49.001,21.309-93.019,55.158-123.314c-6.518,2.107-12.917,4.707-19.137,7.817&#10;&#9;&#9;&#9;c-38.558,19.279-83.942,19.279-122.5,0l0,0c-38.558-19.279-83.942-19.279-122.5,0v230.541h255.538&#10;&#9;&#9;&#9;C236.72,409.831,218.979,369.271,218.979,324.562z"/>
	</g>
	<g>
		<g>
			<path style="fill:none;stroke:#052A75;stroke-width:20;stroke-linecap:round;stroke-linejoin:round;stroke-miterlimit:10;" d="&#10;&#9;&#9;&#9;&#9;M416.788,221.58l37.21-23.956c11.145-7.175,14.363-22.027,7.188-33.172c-7.175-11.144-22.026-14.364-33.172-7.188l-50.825,32.722&#10;&#9;&#9;&#9;&#9;c-16.004,10.304-36.749,10.403-52.85,0.252l-121.38-76.522c-32.921-20.754-74.904-19.901-106.953,2.176l-51.749,35.496&#10;&#9;&#9;&#9;&#9;c-10.916,7.519-13.669,22.463-6.15,33.379c7.519,10.916,22.463,13.669,33.38,6.15l51.749-35.496&#10;&#9;&#9;&#9;&#9;c16.219-11.173,37.466-11.605,54.126-1.101l23.727,14.582"/>
		</g>
		
			<line style="fill:none;stroke:#052A75;stroke-width:20;stroke-linecap:round;stroke-linejoin:round;stroke-miterlimit:10;" x1="191.452" y1="163.204" x2="156.666" y2="218.403"/>
		
			<circle style="fill:none;stroke:#052A75;stroke-width:20;stroke-linecap:round;stroke-linejoin:round;stroke-miterlimit:10;" cx="297.932" cy="117.679" r="47.285"/>
		<path style="fill:none;stroke:#052A75;stroke-width:20;stroke-linecap:round;stroke-linejoin:round;stroke-miterlimit:10;" d="&#10;&#9;&#9;&#9;M500,209.065c-38.558,19.279-83.942,19.279-122.5,0l0,0c-38.558-19.279-83.942-19.279-122.5,0&#10;&#9;&#9;&#9;c-38.558,19.279-83.942,19.279-122.5,0l0,0c-38.558-19.279-83.942-19.279-122.5,0v230.541h490L500,209.065z"/>
		<path style="fill:none;stroke:#052A75;stroke-width:20;stroke-linecap:round;stroke-linejoin:round;stroke-miterlimit:10;" d="&#10;&#9;&#9;&#9;M500,316.433c-38.558,19.279-83.942,19.279-122.5,0l0,0c-38.558-19.279-83.942-19.279-122.5,0&#10;&#9;&#9;&#9;c-38.558,19.279-83.942,19.279-122.5,0l0,0c-38.558-19.279-83.942-19.279-122.5,0"/>
	</g>
</g>
<g>
</g>
<g>
</g>
<g>
</g>
<g>
</g>
<g>
</g>
<g>
</g>
<g>
</g>
<g>
</g>
<g>
</g>
<g>
</g>
<g>
</g>
<g>
</g>
<g>
</g>
<g>
</g>
<g>
</g>
</svg>