<svg id="Layer_1" enable-background="new 0 0 135 135" height="512" viewBox="0 0 135 135" width="512" xmlns="http://www.w3.org/2000/svg"><g id="_x31_7"><g><g><path d="m131.5 67.4949799c0 35.3466797-28.6481781 64.0051422-63.9948578 64.0051422s-64.0051422-28.6584626-64.0051422-64.0051422 28.6584625-63.9951022 64.0051422-63.9951022 63.9948578 28.6484263 63.9948578 63.9951022z" fill="#b730aa"/></g></g><g><g><path d="m116.7106247 67.5c0 .2952499 0 .5987167-.0082092.8940125-.4757691 26.7787551-22.3169861 48.3166122-49.2024155 48.3166122-23.9983902 0-43.9779892-17.1662979-48.3248672-39.9016342-.5823956-3.0100403-.8857575-6.1267014-.8857575-9.3089905 0-27.1724701 22.0299454-49.2106247 49.2106247-49.2106247 27.1805801 0 49.2106247 22.0381546 49.2106247 49.2106247z" fill="#a32391"/></g></g><g><g><g><path d="m18.236 59.142h26.509v13.76h-26.509z" fill="#ffc27c"/></g></g><g><g><path d="m104.3105011 59.018528-.0227966 58.4553108h-51.2024231v-42.2986984c0-1.2576523-1.0195274-2.2771759-2.2771797-2.2771759h-28.1378804v-13.754139h30.4264584c.8995323-.0683098 31.0038223-.1138992 51.2138214-.1252975z" fill="#e5f5f9"/></g></g><g><g><path d="m104.3161621 59.015213-.022789 58.4586258h-51.2024231v-42.3020096c0-1.2524948-1.0247612-2.2771835-2.2771835-2.2771835h-28.1378765v-13.7542038h30.4264584c.6831245-.0569153 18.0466461-.0911064 35.2166901-.1025009 2.3340302-.0113983 4.6680603-.0113983 6.9566422-.0113983 3.1425169 0 6.1826094-.0113297 9.0404814-.0113297z" fill="#e5f5f9"/></g></g><g><g><path d="m88.3190384 59.0265427-8.5508347 23.4322281-8.6192093-23.398037z" fill="#ffc27c"/></g></g><g><g><path d="m95.2756805 59.0265427-23.0108871 58.4472961h-6.9453812l22.9996262-58.4472961z" fill="#24272b"/></g></g><g><g><path d="m58.2545319 75.1751404v42.2986984h-5.1692505v-42.2986984c0-1.2524185-1.0246201-2.2771759-2.2771797-2.2771759h5.1692467c1.2525634 0 2.2771835 1.0247574 2.2771835 2.2771759z" fill="#d3e6ed"/></g></g><g><g><path d="m84.9311371 87.0065842.3797531.4487075-.414299-.4026412z" fill="#f7b26d"/></g></g><g><g><g><path d="m72.56 49.602h14.356v11.119h-14.356z" fill="#ffc27c"/></g></g></g><g><g><path d="m22.7653561 72.9059753h-7.0502586c-3.6833248 0-6.6692486-2.9859238-6.6692505-6.6692505l-.0000029-13.297493c-.000001-2.6666451 2.0309849-5.0152702 4.6953888-5.1245193 2.4114256-.098877 4.5570269 1.578846 5.0130835 3.9783478z" fill="#ffc27c"/></g></g><g><g><path d="m22.7700195 72.9100342h-7.0499268c-3.6900635 0-6.6700439-2.9900513-6.6700439-6.6700439v-13.2999879c0-1.8699951.9899902-3.5800171 2.5-4.4699707-.4801025.7999878-.7600098 1.7399902-.7600098 2.7199707v13.2999878c0 3.6799927 2.9899902 6.6700439 6.6700439 6.6700439h4.9799805z" fill="#f7b26d"/></g></g><g><g><path d="m93.2089157 106.8473816h-7.0502548c-3.6833267 0-6.6692505-2.9859238-6.6692505-6.6692505l-.0000076-13.297493c0-2.6666412 2.030983-5.015274 4.6953888-5.1245193 1.2475281-.0511551 2.4202881.3747559 3.3266983 1.1200943.8480759.7050247 1.4672699 1.7054062 1.6863861 2.8582535z" fill="#ffc27c"/></g></g><g><g><path d="m93.210083 106.8500366h-7.0500488c-3.6799316 0-6.6699219-2.9900513-6.6699219-6.6700439v-13.2999878c0-1.8699951.9899902-3.5700073 2.5-4.460022-.4700928.7900391-.7401123 1.7200317-.7401123 2.7000122v13.2900391c0 3.6900024 2.9901123 6.6699829 6.6700439 6.6699829h4.9499512z" fill="#f7b26d"/></g></g><g><g><path d="m117.9733963 72.7921448v20.2897034h-.0113983v5.7612686c0 4.4063416-3.563652 7.9701385-7.9701385 7.9701385h-16.5778199v-13.7314072h10.8052216v-34.0666351c7.6058578 0 13.7541351 6.1711502 13.7541351 13.7769318z" fill="#d3e6ed"/></g></g><g><g><path d="m117.967865 72.7921448v20.2897034h-.0113983v5.7612686c0 4.4063416-3.563797 7.9701385-7.9701385 7.9701385h-5.7725983v-47.7980423c7.6057128 0 13.7541351 6.1711502 13.7541351 13.7769318z" fill="#d3e6ed"/></g></g><g><g><path d="m88.131 93.082h5.283v13.731h-5.283z" fill="#ffc27c"/></g></g><g><g><path d="m88.13 105.03h5.28v1.78h-5.28z" fill="#f7b26d"/></g></g><g><g><path d="m80.2217026 83.7117157-.8065262 2.5385818-.0455856 1.9014282-1.9013596 7.2414246-13.2646179-36.3210182c2.1177597 0 4.4519272-.0113983 6.9453812-.0113983z" fill="#24272b"/></g></g><g><g><path d="m53.085 111.74h51.231v5.733h-51.231z" fill="#24272b"/></g></g><g><g><g><g><path d="m66.309082 23.36092v13.9054374h-3.1122894v-13.9054374" fill="#24272b"/></g></g><g><g><path d="m66.3085938 21.1256752v22.0953751c0 6.5704613 4.4414749 12.5895195 10.8821335 13.8538017 8.7425919 1.7291527 16.4043961-4.9275856 16.4043961-13.3567429v-20.4311237c0-1.1936588-.9676514-2.1613102-2.1613083-2.1613102h-14.0593263z" fill="#ffc27c"/></g></g><g><g><path d="m78.7229767 57.278862c1.2859192.1298065 2.6259155.0649033 3.9875488-.2052574 6.4406586-1.2642822 10.8822708-7.2836037 10.8822708-13.8540649v-22.0885163h-2.5288315v22.0885162c0 6.5704613-4.4413376 12.5897827-10.8821335 13.8540649-.4863738.0970879-.9726104.1619912-1.4588546.2052575z" fill="#f7b26d"/></g></g><g opacity=".3"><g><g><path d="m68.3592606 45.3457794c-.0420227-.3163719-.0729141-.6358299-.0902176-.9571457-.0284195-.5233727.3732224-.9707413.8972092-.9991646.5301743-.0160675.9701233.3732185.9985504.8965912.0148315.2731171.0407791.5443802.075386.8125534.0692062.5196686-.2978363.9966965-.8168793 1.0646667-.5170135.0684281-.9965515-.2957419-1.0640487-.817501z" fill="#fff"/></g></g></g><g><g><g><path d="m75.5963593 37.0142517v2.0055923c0 1.3124161-1.0639267 2.376339-2.3763428 2.376339-1.3124161 0-2.3763428-1.0639229-2.3763428-2.376339v-2.0055923c0-1.3124161 1.0639267-2.3763428 2.3763428-2.3763428 1.3124161 0 2.3763428 1.0639267 2.3763428 2.3763428z" fill="#24272b"/></g></g><g><g><path d="m89.0600662 37.0142517v2.0055923c0 1.3124161-1.0639191 2.376339-2.3763351 2.376339h-.0000076c-1.3124161 0-2.3763351-1.0639229-2.3763351-2.376339v-2.0055923c0-1.3124161 1.0639191-2.3763428 2.3763351-2.3763428h.0000076c1.3124161 0 2.3763351 1.0639267 2.3763351 2.3763428z" fill="#24272b"/></g></g></g><g><g><g><path d="m79.7658081 43.8569756c.4914474 0 .8901672-.3987198.8901672-.8901634v-2.1268806c0-.4914436-.3987198-.8901634-.8901672-.8901634-.4914398 0-.8901596.3987198-.8901596.8901634v2.1268806c0 .4914436.3987198.8901634.8901596.8901634z" fill="#24272b"/></g></g></g><g><g><path d="m85.3354492 37.3955879c0 .4628296.3798828.8426399.8427811.8426399.4747849 0 .8426361-.3798103.8426361-.8426399 0-.4629021-.3678513-.8427124-.8426361-.8427124-.4628983 0-.8427811.3798104-.8427811.8427124z" fill="#fff"/></g></g><g><g><path d="m71.7780914 36.9267464c0 .4628296.3798828.8426399.8427887.8426399.4747772 0 .8426361-.3798103.8426361-.8426399 0-.4629021-.3678589-.8427124-.8426361-.8427124-.4629059 0-.8427887.3798103-.8427887.8427124z" fill="#fff"/></g></g><g><g><path d="m97.6744385 35.9192772c-1.2276459-.8719749-2.9486237.0918045-2.9486237 1.6062775v6.3332367c-.3556671.0802498-.7342377.1261864-1.1243591.1261864v-10.1423493c1.6751175 0 3.1551361.8146248 4.0729828 2.0766487z" fill="#f7b26d"/></g></g><g><g><path d="m86.9034729 15.0468016v12.9678545h6.6893234v9.2504654h3.5121231v-10.86063c0-5.9003316-4.4632415-10.7524596-10.2014465-11.3576899z" fill="#13181e"/></g></g><g><g><path d="m93.6002502 33.84832c-.0014801 0-.0027313.0004539-.0042038.0004539v10.1309471c.0014725 0 .0027237.0004578.0042038.0004578 2.7937088 0 5.0658722-2.2721634 5.0658722-5.0658722 0-2.7937126-2.2721634-5.0659866-5.0658722-5.0659866z" fill="#f7b26d"/></g></g><g><g><path d="m66.3060532 33.84832c.0014725 0 .0027237.0004539.0042038.0004539v10.1309471c-.0014801 0-.0027313.0004578-.0042038.0004578-2.7937126 0-5.0658722-2.2721634-5.0658722-5.0658722 0-2.7937126 2.2721595-5.0659866 5.0658722-5.0659866z" fill="#ffc27c"/></g></g><g><g><path d="m62.2306595 35.9192772c1.2276421-.8719749 2.9486237.0918045 2.9486237 1.6062775v6.3332367c.3556671.0802498.73423.1261864 1.1243515.1261864v-10.1423493c-1.6751099 0-3.1551324.8146248-4.0729752 2.0766487z" fill="#f7b26d"/></g></g><g><g><path d="m94.225502 21.6547451v15.3633595c0 .8213081-.6698685 1.4803581-1.4911728 1.4803581-.821312 0-1.4914398-.65905-1.4914398-1.4803581v-3.2635994c-2.45298-.3458824-4.3441238-2.4422894-4.3441238-4.9927502v-7.1070099z" fill="#13181e"/></g></g><g><g><g><path d="m96.5974426 20.8733292c0 2.029398-.8163147 3.8660126-2.1427383 5.1924438-1.3264313 1.3377762-3.1630478 2.154089-5.1924438 2.154089h-9.4438171c-2.0407486 1.7119236-4.6822586 2.7549248-7.5505905 2.7549248-6.4735565 0-11.7339478-5.249115-11.7339478-11.7226658 0-6.484828 5.2603912-11.7339439 11.7339478-11.7339439 2.754921 0 5.2944336.9523525 7.3011398 2.5508633.7709198-.351449 1.6325531-.5555105 2.5395126-.5555105 2.6302338 0 4.8749695 1.6778793 5.7026291 4.024682h1.4511261c4.0587234-.0000001 7.3351821 3.2764587 7.3351821 7.3351173z" fill="#24272b"/></g></g></g><g><g><g><path d="m96.5947113 20.8691692c0 2.0307465-.810318 3.8659077-2.1423569 5.198-1.3227081 1.3320923-3.1580429 2.1518517-5.1887283 2.1518517h-2.3661423v-16.348484c.3913956.5030098.6986465 1.0619097.9128876 1.6674328h1.4532547c4.0616074-.0000011 7.3310852 3.2790316 7.3310852 7.3311995z" fill="#13181e"/></g></g></g><g opacity=".3"><g><g><g><path d="m70.4484711 12.6763134c-.5619812 0-1.0707855-.3855305-1.2037277-.9559717-.155899-.6647081.2574234-1.3306246.9233398-1.4865294.681633-.1595297 1.3874283-.2405033 2.0992737-.2405033.6840439 0 1.2375641.5535202 1.2375641 1.237566 0 .6840448-.5535202 1.237566-1.2375641 1.237566-.5221024 0-1.0381546.0592194-1.5360794.1752415-.0942688.0217533-.1897507.0326309-.2828064.0326309z" fill="#fff"/></g></g></g><g><g><g><path d="m64.2461395 20.4896564c-.6840477 0-1.2375679-.5535202-1.2375679-1.237566 0-2.7035484 1.1807671-5.2656975 3.2389412-7.0289869.5184784-.4447508 1.300415-.3867397 1.7439575.1341496.4459534.5184727.3855286 1.2992029-.1341553 1.7439528-1.5082779 1.2943687-2.3736115 3.1712627-2.3736115 5.1508846.0000001.6840457-.5535201 1.2375659-1.237564 1.2375659z" fill="#fff"/></g></g></g></g></g><g><g><g><path d="m79.4208145 51.2531395c1.3518677 0 2.703743-.5118332 3.736908-1.5376091.3176575-.3155441.3197632-.8284302.0042191-1.1460838-.316597-.3187103-.829483-.3187103-1.14608-.0042229-1.4415741 1.4310226-3.7770157 1.421524-5.2080383-.0179405-.3155441-.3176537-.8284302-.3197632-1.1460876-.0042229-.3176498.3155441-.3197632.828434-.0042191 1.1460876 1.0352782 1.0426598 2.3998107 1.5639916 3.7632979 1.5639916z" fill="#24272b"/></g></g></g><g opacity=".3"><g><g><path d="m71.7701416 52.5877266c-1.1233673-1.1239853-1.9995651-2.4314919-2.6026535-3.8872948-.2014389-.4844437.0284271-1.0399475.5128708-1.2407684.4832077-.2014389 1.0405655.0290413 1.2395325.512867.5091629 1.2253227 1.2457123 2.3264427 2.1923599 3.2730865.3707428.3707466.3707428.9719772 0 1.3421097-.3692551.3692474-.9698639.372242-1.3421097 0z" fill="#fff"/></g></g></g></g></g><g><g><path d="m104.2200928 117.4700317v2.4499512c-10.3901367 7.3000488-23.0500489 11.5800171-36.710083 11.5800171-4.9500732 0-9.7799072-.5599976-14.4100342-1.6300049v-12.3999634z" fill="#e5f5f9"/></g></g><g><g><path d="m70.1600342 131.4500122c-.8800049.0299683-1.7600098.0499878-2.6500244.0499878-4.9500732 0-9.7799072-.5599976-14.4100342-1.6300049v-12.3999634h5.1500244v12.3999634c3.8499756.8900147 7.8299561 1.4299927 11.9100342 1.5800171z" fill="#d3e6ed"/></g></g><g opacity=".7"><g><g><path d="m112.9448471 88.1355591v-10.3932953c0-.7220078.5848694-1.3062439 1.3062439-1.3062439.7213669 0 1.3062439.5842361 1.3062439 1.3062439v10.3932953c0 .7220078-.584877 1.3062439-1.3062439 1.3062439-.7213745 0-1.3062439-.5842362-1.3062439-1.3062439z" fill="#fff"/></g></g><g><g><path d="m112.9448471 73.0249863v-.4247894c0-.7220078.5848694-1.3062439 1.3062439-1.3062439.7213669 0 1.3062439.5842361 1.3062439 1.3062439v.4247894c0 .7220001-.584877 1.3062439-1.3062439 1.3062439-.7213745 0-1.3062439-.5842438-1.3062439-1.3062439z" fill="#fff"/></g></g></g></g></svg>