<svg version="1.1" id="Capa_1" xmlns="http://www.w3.org/2000/svg" xmlns:xlink="http://www.w3.org/1999/xlink" x="0px" y="0px" viewBox="0 0 512 512" style="enable-background:new 0 0 512 512;" xml:space="preserve">
<g>
	<g>
		<path style="fill:#FFD15B;" d="M226.603,432.507l-2.74,4.744L184.456,414.5l0,0c-6.004-3.468-9.731-10.881-9.731-21.402&#10;&#9;&#9;&#9;c0-21.044,14.912-46.872,33.139-57.396c9.114-5.262,17.4-5.741,23.405-2.272l28.37,16.377l11.038,6.375l-2.74,4.745&#10;&#9;&#9;&#9;L226.603,432.507z"/>
		<path style="fill:#FFD15B;" d="M63.146,337.688l-2.74,4.744l-39.408-22.752l0,0c-6.004-3.468-9.731-10.881-9.731-21.402&#10;&#9;&#9;&#9;c0-21.044,14.912-46.872,33.139-57.396c9.114-5.262,17.399-5.741,23.405-2.272l28.37,16.377l11.038,6.375l-2.74,4.745&#10;&#9;&#9;&#9;L63.146,337.688z"/>
		<path style="fill:#FFD15B;" d="M449.712,303.695l-2.74,4.744l-39.408-22.752l0,0c-6.004-3.468-9.731-10.881-9.731-21.402&#10;&#9;&#9;&#9;c0-21.044,14.912-46.872,33.139-57.396c9.114-5.262,17.399-5.741,23.405-2.272l28.37,16.377l11.038,6.375l-2.74,4.745&#10;&#9;&#9;&#9;L449.712,303.695z"/>
		<path style="fill:#FEB237;" d="M471.38,232.087c17.676-10.206,32.137-1.857,32.135,18.554&#10;&#9;&#9;&#9;c-0.002,20.411-14.464,45.46-32.139,55.664c-17.674,10.204-32.135,1.855-32.135-18.554&#10;&#9;&#9;&#9;C439.242,267.342,453.704,242.293,471.38,232.087z"/>
		<path style="fill:#0055A3;" d="M470.648,253.337c-6.772,4.808-12.435,15.297-12.583,23.308&#10;&#9;&#9;&#9;c-0.149,8.042,5.297,10.616,12.043,5.827c6.772-4.807,12.434-15.296,12.583-23.308&#10;&#9;&#9;&#9;C482.841,251.116,477.392,248.55,470.648,253.337z"/>
		<path style="fill:#FFD15B;" d="M286.255,208.876l-2.74,4.744l-39.408-22.752l0,0c-6.004-3.468-9.731-10.881-9.731-21.402&#10;&#9;&#9;&#9;c0-21.044,14.912-46.872,33.139-57.396c9.114-5.262,17.4-5.741,23.405-2.272l28.37,16.377l11.038,6.375l-2.74,4.745&#10;&#9;&#9;&#9;L286.255,208.876z"/>
		<path style="fill:#0055A3;" d="M507,123.595V160.4c0,13.877-9.326,27.926-27.886,38.643L160.387,383.057&#10;&#9;&#9;&#9;c-36.297,20.957-94.668,21.536-129.736,1.29C13.523,374.463,5,361.358,5,348.091v-36.805l70.125-26.219l414.859-155.113&#10;&#9;&#9;&#9;L507,123.595z"/>
		<path style="fill:#0573CE;" d="M481.346,87.338c-35.06-20.242-93.438-19.661-129.728,1.291L32.891,272.647&#10;&#9;&#9;&#9;c-36.29,20.952-37.297,54.656-2.237,74.898s93.438,19.661,129.728-1.291l318.728-184.017&#10;&#9;&#9;&#9;C515.4,141.284,516.406,107.58,481.346,87.338z"/>
		<path style="fill:#FEB237;" d="M248.478,361.405c17.562-10.14,31.93-1.845,31.928,18.435&#10;&#9;&#9;&#9;c-0.002,20.28-14.371,45.167-31.932,55.306s-31.928,1.843-31.928-18.435C216.546,396.433,230.915,371.545,248.478,361.405z"/>
		<path style="fill:#0055A3;" d="M247.539,382.15c-6.772,4.808-12.435,15.297-12.583,23.308c-0.149,8.042,5.297,10.616,12.043,5.827&#10;&#9;&#9;&#9;c6.772-4.807,12.434-15.296,12.583-23.308C259.731,379.928,254.282,377.363,247.539,382.15z"/>
		<path style="fill:#C0D6F2;" d="M361.342,131.041c-5.345-3.086-5.345-8.136,0-11.222c5.345-3.086,14.092-3.086,19.437,0&#10;&#9;&#9;&#9;c5.345,3.086,5.345,8.136,0,11.222C375.434,134.127,366.687,134.127,361.342,131.041z"/>
		<path style="fill:#C0D6F2;" d="M405.965,156.81c-5.345-3.086-5.345-8.136,0-11.222s14.092-3.086,19.437,0s5.345,8.136,0,11.222&#10;&#9;&#9;&#9;C420.057,159.896,411.311,159.896,405.965,156.81z"/>
		<path style="fill:#C0D6F2;" d="M319.431,154.869c-5.345-3.086-5.345-8.136,0-11.222s14.092-3.086,19.437,0s5.345,8.136,0,11.222&#10;&#9;&#9;&#9;C333.523,157.955,324.776,157.955,319.431,154.869z"/>
		<path style="fill:#C0D6F2;" d="M364.054,180.638c-5.345-3.086-5.345-8.136,0-11.222c5.345-3.086,14.092-3.086,19.437,0&#10;&#9;&#9;&#9;c5.345,3.086,5.345,8.136,0,11.222C378.146,183.724,369.399,183.724,364.054,180.638z"/>
		<path style="fill:#C0D6F2;" d="M128.718,265.346c-5.345-3.086-5.345-8.136,0-11.222c5.345-3.086,14.092-3.086,19.437,0&#10;&#9;&#9;&#9;c5.345,3.086,5.345,8.136,0,11.222C142.809,268.432,134.063,268.432,128.718,265.346z"/>
		<path style="fill:#C0D6F2;" d="M173.341,291.116c-5.345-3.086-5.345-8.136,0-11.222c5.345-3.086,14.092-3.086,19.437,0&#10;&#9;&#9;&#9;c5.345,3.086,5.345,8.136,0,11.222C187.433,294.202,178.686,294.202,173.341,291.116z"/>
		<path style="fill:#C0D6F2;" d="M86.807,289.174c-5.345-3.086-5.345-8.136,0-11.222s14.092-3.086,19.437,0s5.345,8.136,0,11.222&#10;&#9;&#9;&#9;S92.152,292.26,86.807,289.174z"/>
		<path style="fill:#C0D6F2;" d="M131.43,314.944c-5.345-3.086-5.345-8.136,0-11.222c5.345-3.086,14.092-3.086,19.437,0&#10;&#9;&#9;&#9;c5.345,3.086,5.345,8.136,0,11.222C145.522,318.03,136.775,318.03,131.43,314.944z"/>
	</g>
	<g>
		<path style="fill:none;stroke:#072F75;stroke-width:6;stroke-linecap:round;stroke-linejoin:round;stroke-miterlimit:10;" d="&#10;&#9;&#9;&#9;M361.342,131.041c-5.345-3.086-5.345-8.136,0-11.222c5.345-3.086,14.092-3.086,19.437,0c5.345,3.086,5.345,8.136,0,11.222&#10;&#9;&#9;&#9;C375.434,134.127,366.687,134.127,361.342,131.041z"/>
		<path style="fill:none;stroke:#072F75;stroke-width:6;stroke-linecap:round;stroke-linejoin:round;stroke-miterlimit:10;" d="&#10;&#9;&#9;&#9;M405.965,156.81c-5.345-3.086-5.345-8.136,0-11.222s14.092-3.086,19.437,0s5.345,8.136,0,11.222&#10;&#9;&#9;&#9;C420.057,159.896,411.311,159.896,405.965,156.81z"/>
		<path style="fill:none;stroke:#072F75;stroke-width:6;stroke-linecap:round;stroke-linejoin:round;stroke-miterlimit:10;" d="&#10;&#9;&#9;&#9;M319.431,154.869c-5.345-3.086-5.345-8.136,0-11.222s14.092-3.086,19.437,0s5.345,8.136,0,11.222&#10;&#9;&#9;&#9;C333.523,157.955,324.776,157.955,319.431,154.869z"/>
		<path style="fill:none;stroke:#072F75;stroke-width:6;stroke-linecap:round;stroke-linejoin:round;stroke-miterlimit:10;" d="&#10;&#9;&#9;&#9;M364.054,180.638c-5.345-3.086-5.345-8.136,0-11.222c5.345-3.086,14.092-3.086,19.437,0c5.345,3.086,5.345,8.136,0,11.222&#10;&#9;&#9;&#9;C378.146,183.724,369.399,183.724,364.054,180.638z"/>
		<path style="fill:none;stroke:#072F75;stroke-width:6;stroke-linecap:round;stroke-linejoin:round;stroke-miterlimit:10;" d="&#10;&#9;&#9;&#9;M128.718,265.346c-5.345-3.086-5.345-8.136,0-11.222c5.345-3.086,14.092-3.086,19.437,0c5.345,3.086,5.345,8.136,0,11.222&#10;&#9;&#9;&#9;C142.809,268.432,134.063,268.432,128.718,265.346z"/>
		<path style="fill:none;stroke:#072F75;stroke-width:6;stroke-linecap:round;stroke-linejoin:round;stroke-miterlimit:10;" d="&#10;&#9;&#9;&#9;M173.341,291.116c-5.345-3.086-5.345-8.136,0-11.222c5.345-3.086,14.092-3.086,19.437,0c5.345,3.086,5.345,8.136,0,11.222&#10;&#9;&#9;&#9;C187.433,294.202,178.686,294.202,173.341,291.116z"/>
		<path style="fill:none;stroke:#072F75;stroke-width:6;stroke-linecap:round;stroke-linejoin:round;stroke-miterlimit:10;" d="&#10;&#9;&#9;&#9;M86.807,289.174c-5.345-3.086-5.345-8.136,0-11.222s14.092-3.086,19.437,0s5.345,8.136,0,11.222S92.152,292.26,86.807,289.174z"/>
		<path style="fill:none;stroke:#072F75;stroke-width:6;stroke-linecap:round;stroke-linejoin:round;stroke-miterlimit:10;" d="&#10;&#9;&#9;&#9;M131.43,314.944c-5.345-3.086-5.345-8.136,0-11.222c5.345-3.086,14.092-3.086,19.437,0c5.345,3.086,5.345,8.136,0,11.222&#10;&#9;&#9;&#9;C145.522,318.03,136.775,318.03,131.43,314.944z"/>
		<path style="fill:none;stroke:#072F75;stroke-width:10;stroke-linecap:round;stroke-linejoin:round;stroke-miterlimit:10;" d="&#10;&#9;&#9;&#9;M506.998,123.596c0-13.261-8.52-26.367-25.652-36.257c-35.06-20.242-93.438-19.661-129.728,1.291L32.891,272.647&#10;&#9;&#9;&#9;c-18.556,10.714-27.887,24.761-27.888,38.638L5,311.286v36.805c0,13.267,8.523,26.372,25.651,36.256&#10;&#9;&#9;&#9;c35.068,20.246,93.439,19.667,129.736-1.29l318.728-184.014C497.674,188.326,507,174.276,507,160.4v-36.805L506.998,123.596z"/>
		<path style="fill:none;stroke:#072F75;stroke-width:6;stroke-linecap:round;stroke-linejoin:round;stroke-miterlimit:10;" d="&#10;&#9;&#9;&#9;M247.539,382.15c-6.772,4.808-12.435,15.297-12.583,23.308c-0.149,8.042,5.297,10.616,12.043,5.827&#10;&#9;&#9;&#9;c6.772-4.807,12.434-15.296,12.583-23.308C259.731,379.928,254.282,377.363,247.539,382.15z"/>
		<path style="fill:none;stroke:#072F75;stroke-width:10;stroke-linecap:round;stroke-linejoin:round;stroke-miterlimit:10;" d="&#10;&#9;&#9;&#9;M5.016,310.363c-0.405,13.575,8.108,27.062,25.638,37.183c35.06,20.242,93.438,19.661,129.728-1.291l318.728-184.017&#10;&#9;&#9;&#9;c18.145-10.476,27.469-24.14,27.875-37.716"/>
		<path style="fill:none;stroke:#072F75;stroke-width:10;stroke-linecap:round;stroke-linejoin:round;stroke-miterlimit:10;" d="&#10;&#9;&#9;&#9;M301.937,116.158l-11.016-6.359c-6.006-3.469-14.291-2.991-23.405,2.272c-13.853,7.999-25.791,24.838-30.723,41.698"/>
		<path style="fill:none;stroke:#072F75;stroke-width:10;stroke-linecap:round;stroke-linejoin:round;stroke-miterlimit:10;" d="&#10;&#9;&#9;&#9;M78.827,244.97l-11.016-6.359c-6.006-3.469-14.291-2.991-23.405,2.272c-15.543,8.974-28.675,29.078-32.206,47.854"/>
		<path style="fill:none;stroke:#072F75;stroke-width:6;stroke-linecap:round;stroke-linejoin:round;stroke-miterlimit:10;" d="&#10;&#9;&#9;&#9;M269.674,357.913c-5.632-3.251-13.233-2.445-21.403,2.273c-17.721,10.232-32.139,35.203-32.139,55.664&#10;&#9;&#9;&#9;c0,9.433,3.102,16.419,8.733,19.671"/>
		<path style="fill:none;stroke:#072F75;stroke-width:6;stroke-linecap:round;stroke-linejoin:round;stroke-miterlimit:10;" d="&#10;&#9;&#9;&#9;M470.648,253.337c-6.772,4.808-12.435,15.297-12.583,23.308c-0.149,8.042,5.297,10.616,12.043,5.827&#10;&#9;&#9;&#9;c6.772-4.807,12.434-15.296,12.583-23.308C482.841,251.116,477.392,248.55,470.648,253.337z"/>
		<path style="fill:none;stroke:#072F75;stroke-width:6;stroke-linecap:round;stroke-linejoin:round;stroke-miterlimit:10;" d="&#10;&#9;&#9;&#9;M492.783,229.101c-5.632-3.251-13.233-2.445-21.403,2.273c-17.721,10.232-32.139,35.203-32.139,55.664&#10;&#9;&#9;&#9;c0,9.433,3.102,16.419,8.733,19.671"/>
		<path style="fill:none;stroke:#072F75;stroke-width:10;stroke-linecap:round;stroke-linejoin:round;stroke-miterlimit:10;" d="&#10;&#9;&#9;&#9;M178.269,373.887c-2.266,6.478-3.545,13.049-3.545,19.211c0,10.521,3.727,17.933,9.731,21.402l39.408,22.752v0&#10;&#9;&#9;&#9;c6.006,3.469,14.291,2.991,23.404-2.27c18.224-10.522,33.137-36.35,33.139-57.396c0.001-10.525-3.727-17.939-9.735-21.406&#10;&#9;&#9;&#9;l-30.865-17.82"/>
		<path style="fill:none;stroke:#072F75;stroke-width:10;stroke-linecap:round;stroke-linejoin:round;stroke-miterlimit:10;" d="&#10;&#9;&#9;&#9;M401.377,245.078c-2.265,6.477-3.543,13.047-3.543,19.207c0,10.521,3.727,17.933,9.731,21.402l39.408,22.752v0&#10;&#9;&#9;&#9;c6.006,3.469,14.291,2.991,23.404-2.27c18.224-10.522,33.137-36.35,33.139-57.396c0.001-10.525-3.728-17.939-9.735-21.406&#10;&#9;&#9;&#9;l-30.863-17.819"/>
	</g>
</g>
<g>
</g>
<g>
</g>
<g>
</g>
<g>
</g>
<g>
</g>
<g>
</g>
<g>
</g>
<g>
</g>
<g>
</g>
<g>
</g>
<g>
</g>
<g>
</g>
<g>
</g>
<g>
</g>
<g>
</g>
</svg>