<?xml version="1.0"?>
<svg xmlns="http://www.w3.org/2000/svg" id="icons" viewBox="0 0 60 60"><path d="M16.83,7l2.607-4.934A2,2,0,0,1,21.205,1H38.8a2,2,0,0,1,1.768,1.066L43.17,7,44,8H16Z" fill="#4580c6"/><path d="M4,40H9a0,0,0,0,1,0,0V57a2,2,0,0,1-2,2H6a2,2,0,0,1-2-2V40A0,0,0,0,1,4,40Z" fill="#38689b"/><path d="M51,40h5a0,0,0,0,1,0,0V57a2,2,0,0,1-2,2H53a2,2,0,0,1-2-2V40A0,0,0,0,1,51,40Z" fill="#38689b"/><path d="M57,41H3a2,2,0,0,1-2-2V37l1-1H58l1,1v2A2,2,0,0,1,57,41Z" fill="#38689b"/><polygon fill="#4580c6" points="59 37 47.39 15 47 14 13 14 12.61 15 1 37 59 37"/><path d="M40.22,26.39l3.49,3.49a1,1,0,0,1,0,1.41l-1.42,1.42a1,1,0,0,1-1.41,0l-3.49-3.49Z" fill="#e2ca99"/><path d="M49,11v3a1,1,0,0,1-1,1H12a1,1,0,0,1-1-1V11l1-1H48Z" fill="#38689b"/><path d="M49,9v2H11V9a2.006,2.006,0,0,1,2-2H47A2.006,2.006,0,0,1,49,9Z" fill="#c4ddf0"/><path d="M38.968,27.968c-2.125,2.125-4.806,2.9-6.931.773s-2.9-6.352-.773-8.477,6.342-1.362,8.477.773S41.093,25.843,38.968,27.968Z" fill="#f27182"/><circle cx="20.5" cy="24.5" fill="#e4f1ff" r="2.5"/><path d="M0,39a3,3,0,0,0,3,3H8V57a1,1,0,0,1-1,1H6a1,1,0,0,1-1-1V45a1,1,0,0,0-2,0V57a3,3,0,0,0,3,3H7a3,3,0,0,0,3-3V42H50V57a3,3,0,0,0,3,3h1a3,3,0,0,0,3-3V42a3,3,0,0,0,3-3V37a.979.979,0,0,0-.127-.461l.012-.006L48.924,15.763A1.994,1.994,0,0,0,50,14V9a3,3,0,0,0-3-3H43.772L41.447,1.6A2.993,2.993,0,0,0,38.8,0H21.205a2.992,2.992,0,0,0-2.652,1.6L16.228,6H13a3,3,0,0,0-3,3v5a1.994,1.994,0,0,0,1.076,1.763L.115,36.533l.012.006A.979.979,0,0,0,0,37ZM55,57a1,1,0,0,1-1,1H53a1,1,0,0,1-1-1V42h3ZM20.32,2.533A1,1,0,0,1,21.205,2H38.8a1,1,0,0,1,.885.532L41.511,6H18.489ZM12,9a1,1,0,0,1,1-1H47a1,1,0,0,1,1,1v1H12Zm0,3H48v2H12Zm1.214,4H46.786L57.341,36H2.659ZM2,38H58v1a1,1,0,0,1-1,1H3a1,1,0,0,1-1-1Z" fill="#373737"/><path d="M41.454,26.21a4.92,4.92,0,0,0-1.006-5.88c-2.467-2.467-7.324-3.341-9.891-.773s-1.693,7.425.773,9.891a4.949,4.949,0,0,0,3.546,1.565,5.5,5.5,0,0,0,2.336-.557l2.961,2.961A1.986,1.986,0,0,0,41.588,34H41.6a1.952,1.952,0,0,0,1.4-.585l1.411-1.411A1.96,1.96,0,0,0,45,30.6a1.984,1.984,0,0,0-.585-1.429Zm-8.71,1.824c-1.764-1.763-2.467-5.37-.773-7.063A3.729,3.729,0,0,1,34.659,20a6.494,6.494,0,0,1,4.375,1.741c2.141,2.141.172,4.571-.773,5.517S34.886,30.176,32.744,28.034ZM41.587,32,38.93,29.346c.251-.207.5-.426.745-.671s.465-.5.672-.745L43,30.583Z" fill="#373737"/><path d="M20.5,21A3.5,3.5,0,1,0,24,24.5,3.5,3.5,0,0,0,20.5,21Zm0,5A1.5,1.5,0,1,1,22,24.5,1.5,1.5,0,0,1,20.5,26Z" fill="#373737"/></svg>
