<svg id="Layer_1" enable-background="new 0 0 512 512" height="512" viewBox="0 0 512 512" width="512" xmlns="http://www.w3.org/2000/svg"><g><g><g><g><path d="m96 103.996v-24c-4.418 0-8 3.582-8 8v8c0 4.418 3.582 8 8 8z" fill="#f0915a"/></g></g></g><g><g><g><path d="m160 103.996v-24c4.418 0 8 3.582 8 8v8c0 4.418-3.582 8-8 8z" fill="#f0915a"/></g></g></g><g><g><g><path d="m352 103.996v-24c-4.418 0-8 3.582-8 8v8c0 4.418 3.582 8 8 8z" fill="#f0915a"/></g></g></g><g><g><g><path d="m416 103.996v-24c4.418 0 8 3.582 8 8v8c0 4.418-3.582 8-8 8z" fill="#f0915a"/></g></g></g><g><g><g><path d="m207.989 464.004c-13.709 0-26.388-8.877-30.596-22.67l-39.864-130.667c-5.157-16.904 4.366-34.788 21.27-39.945 16.904-5.155 34.788 4.366 39.945 21.27l39.864 130.667c5.157 16.904-4.366 34.788-21.27 39.945-3.111.948-6.257 1.4-9.349 1.4z" fill="#5055a5"/></g></g></g><g><g><g><path d="m48.011 464.004c-3.093 0-6.237-.452-9.349-1.401-16.904-5.157-26.426-23.042-21.27-39.945l40-131.111c5.158-16.903 23.042-26.424 39.945-21.27 16.904 5.157 26.426 23.042 21.27 39.945l-40 131.111c-4.208 13.793-16.888 22.671-30.596 22.671z" fill="#5055a5"/></g></g></g><g><g><g><path d="m144 127.996h-32c-8.837 0-16-7.163-16-16v-48c0-8.837 7.163-16 16-16h32c8.837 0 16 7.163 16 16v48c0 8.836-7.163 16-16 16z" fill="#fab991"/></g></g></g><g><g><g><path d="m64 127.996h128v146.667h-128z" fill="#5f7dbe"/></g></g></g><g><g><g><path d="m216 191.996h-24c-4.418 0-8-3.582-8-8v-48c0-4.418 3.582-8 8-8h24c4.418 0 8 3.582 8 8v48c0 4.418-3.582 8-8 8z" fill="#5055a5"/></g></g></g><g><g><g><path d="m128 159.996-16-32h32z" fill="#f0915a"/></g></g></g><g><g><g><path d="m32 223.996h32v-96c-17.673 0-32 14.327-32 32z" fill="#5055a5"/></g></g></g><g><g><g><path d="m216 159.996h-32v-24c0-4.418 3.582-8 8-8h24c4.418 0 8 3.582 8 8v16c0 4.418-3.582 8-8 8z" fill="#fab991"/></g></g></g><g><g><g><path d="m197.333 167.996h-5.333c-4.418 0-8-3.582-8-8h21.333c0 4.418-3.581 8-8 8z" fill="#f0915a"/></g></g></g><g><g><g><path d="m56 215.996h-32v24c0 4.418 3.582 8 8 8h24c4.418 0 8-3.582 8-8v-16c0-4.418-3.582-8-8-8z" fill="#fab991"/></g></g></g><g><g><g><path d="m37.333 207.996h-5.333c-4.418 0-8 3.582-8 8h21.333c0-4.418-3.581-8-8-8z" fill="#f0915a"/></g></g></g><g><g><g><path d="m48 423.996c-17.673 0-32 14.327-32 32 0 4.418 3.582 8 8 8h48c4.418 0 8-3.582 8-8 0-17.673-14.327-32-32-32z" fill="#fab991"/></g></g></g><g><g><g><path d="m208 423.996c-17.673 0-32 14.327-32 32 0 4.418 3.582 8 8 8h48c4.418 0 8-3.582 8-8 0-17.673-14.327-32-32-32z" fill="#fab991"/></g></g></g><g><g><g><path d="m54.177 277.466-7.157 21.47c-3.453 10.361 4.258 21.06 15.179 21.06h131.602c10.921 0 18.632-10.699 15.179-21.06l-7.157-21.47c-1.089-3.267-4.146-5.47-7.589-5.47h-132.468c-3.443 0-6.5 2.203-7.589 5.47z" fill="#5f7dbe"/></g></g></g><g><g><g><path d="m96 255.996 64-128h-16l-64 128z" fill="#5055a5"/></g></g></g><g><g><g><path d="m128 159.996-16-32h-16l24 48z" fill="#5055a5"/></g></g></g><g><g><g><path d="m64 247.996h128v24h-128z" fill="#ffc33c"/></g></g></g><g><g><g><path d="m463.989 464.004c-13.709 0-26.388-8.877-30.596-22.67l-39.864-130.667c-5.157-16.904 4.366-34.788 21.27-39.945 16.903-5.155 34.788 4.366 39.945 21.27l39.864 130.667c5.157 16.904-4.366 34.788-21.27 39.945-3.111.948-6.257 1.4-9.349 1.4z" fill="#5055a5"/></g></g></g><g><g><g><path d="m304.011 464.004c-3.093 0-6.237-.452-9.349-1.401-16.904-5.157-26.426-23.042-21.27-39.945l40-131.111c5.158-16.903 23.043-26.424 39.945-21.27 16.904 5.157 26.426 23.042 21.27 39.945l-40 131.111c-4.208 13.793-16.888 22.671-30.596 22.671z" fill="#5055a5"/></g></g></g><g><g><g><path d="m320 127.996h128v146.667h-128z" fill="#5f7dbe"/></g></g></g><g><g><g><path d="m472 191.996h-24c-4.418 0-8-3.582-8-8v-48c0-4.418 3.582-8 8-8h24c4.418 0 8 3.582 8 8v48c0 4.418-3.582 8-8 8z" fill="#5055a5"/></g></g></g><g><g><g><path d="m384 159.996-16-32h32z" fill="#f0915a"/></g></g></g><g><g><g><path d="m288 223.996h32v-96c-17.673 0-32 14.327-32 32z" fill="#5055a5"/></g></g></g><g><g><g><path d="m472 159.996h-32v-24c0-4.418 3.582-8 8-8h24c4.418 0 8 3.582 8 8v16c0 4.418-3.582 8-8 8z" fill="#fab991"/></g></g></g><g><g><g><path d="m453.333 167.996h-5.333c-4.418 0-8-3.582-8-8h21.333c0 4.418-3.581 8-8 8z" fill="#f0915a"/></g></g></g><g><g><g><path d="m304 423.996c-17.673 0-32 14.327-32 32 0 4.418 3.582 8 8 8h48c4.418 0 8-3.582 8-8 0-17.673-14.327-32-32-32z" fill="#fab991"/></g></g></g><g><g><g><path d="m464 423.996c-17.673 0-32 14.327-32 32 0 4.418 3.582 8 8 8h48c4.418 0 8-3.582 8-8 0-17.673-14.327-32-32-32z" fill="#fab991"/></g></g></g><g><g><g><path d="m310.177 277.466-7.157 21.47c-3.454 10.361 4.258 21.06 15.179 21.06h131.602c10.921 0 18.632-10.699 15.179-21.06l-7.157-21.47c-1.089-3.267-4.146-5.47-7.589-5.47h-132.468c-3.443 0-6.5 2.203-7.589 5.47z" fill="#5f7dbe"/></g></g></g><g><g><g><path d="m352 255.996 64-128h-16l-64 128z" fill="#5055a5"/></g></g></g><g><g><g><path d="m384 159.996-16-32h-16l24 48z" fill="#5055a5"/></g></g></g><g><g><g><path d="m320 247.996h128v24h-128z" fill="#ffc33c"/></g></g></g><g><g><g><path d="m96 87.996c4.418 0 8-3.582 8-8v-8c0-4.418 3.582-8 8-8h32c4.418 0 8 3.582 8 8v8c0 4.418 3.582 8 8 8v-24c0-8.837-7.163-16-16-16h-32c-8.837 0-16 7.163-16 16z" fill="#464646"/></g></g></g><g><g><g><path d="m400 127.996h-32c-8.837 0-16-7.163-16-16v-48c0-8.837 7.163-16 16-16h32c8.837 0 16 7.163 16 16v48c0 8.836-7.163 16-16 16z" fill="#fab991"/></g></g></g><g><g><g><path d="m352 87.996c4.418 0 8-3.582 8-8v-8c0-4.418 3.582-8 8-8h32c4.418 0 8 3.582 8 8v8c0 4.418 3.582 8 8 8v-24c0-8.837-7.163-16-16-16h-32c-8.837 0-16 7.163-16 16z" fill="#464646"/></g></g></g><g><g><g><path d="m312 215.996h-32v24c0 4.418 3.582 8 8 8h24c4.418 0 8-3.582 8-8v-16c0-4.418-3.582-8-8-8z" fill="#fab991"/></g></g></g><g><g><g><path d="m293.333 207.996h-5.333c-4.418 0-8 3.582-8 8h21.333c0-4.418-3.581-8-8-8z" fill="#f0915a"/></g></g></g></g><g><g><g><g><path d="m96 103.996v-24c-4.418 0-8 3.582-8 8v8c0 4.418 3.582 8 8 8z" fill="#f0915a"/></g></g></g><g><g><g><path d="m160 103.996v-24c4.418 0 8 3.582 8 8v8c0 4.418-3.582 8-8 8z" fill="#f0915a"/></g></g></g><g><g><g><path d="m352 103.996v-24c-4.418 0-8 3.582-8 8v8c0 4.418 3.582 8 8 8z" fill="#f0915a"/></g></g></g><g><g><g><path d="m416 103.996v-24c4.418 0 8 3.582 8 8v8c0 4.418-3.582 8-8 8z" fill="#f0915a"/></g></g></g><g><g><g><path d="m207.989 464.004c-13.709 0-26.388-8.877-30.596-22.67l-39.864-130.667c-5.157-16.904 4.366-34.788 21.27-39.945 16.904-5.155 34.788 4.366 39.945 21.27l39.864 130.667c5.157 16.904-4.366 34.788-21.27 39.945-3.111.948-6.257 1.4-9.349 1.4z" fill="#5055a5"/></g></g></g><g><g><g><path d="m48.011 464.004c-3.093 0-6.237-.452-9.349-1.401-16.904-5.157-26.426-23.042-21.27-39.945l40-131.111c5.158-16.903 23.042-26.424 39.945-21.27 16.904 5.157 26.426 23.042 21.27 39.945l-40 131.111c-4.208 13.793-16.888 22.671-30.596 22.671z" fill="#5055a5"/></g></g></g><g><g><g><path d="m144 127.996h-32c-8.837 0-16-7.163-16-16v-48c0-8.837 7.163-16 16-16h32c8.837 0 16 7.163 16 16v48c0 8.836-7.163 16-16 16z" fill="#fab991"/></g></g></g><g><g><g><path d="m64 127.996h128v146.667h-128z" fill="#5f7dbe"/></g></g></g><g><g><g><path d="m216 191.996h-24c-4.418 0-8-3.582-8-8v-48c0-4.418 3.582-8 8-8h24c4.418 0 8 3.582 8 8v48c0 4.418-3.582 8-8 8z" fill="#5055a5"/></g></g></g><g><g><g><path d="m128 159.996-16-32h32z" fill="#f0915a"/></g></g></g><g><g><g><path d="m32 223.996h32v-96c-17.673 0-32 14.327-32 32z" fill="#5055a5"/></g></g></g><g><g><g><path d="m216 159.996h-32v-24c0-4.418 3.582-8 8-8h24c4.418 0 8 3.582 8 8v16c0 4.418-3.582 8-8 8z" fill="#fab991"/></g></g></g><g><g><g><path d="m197.333 167.996h-5.333c-4.418 0-8-3.582-8-8h21.333c0 4.418-3.581 8-8 8z" fill="#f0915a"/></g></g></g><g><g><g><path d="m56 215.996h-32v24c0 4.418 3.582 8 8 8h24c4.418 0 8-3.582 8-8v-16c0-4.418-3.582-8-8-8z" fill="#fab991"/></g></g></g><g><g><g><path d="m37.333 207.996h-5.333c-4.418 0-8 3.582-8 8h21.333c0-4.418-3.581-8-8-8z" fill="#f0915a"/></g></g></g><g><g><g><path d="m48 423.996c-17.673 0-32 14.327-32 32 0 4.418 3.582 8 8 8h48c4.418 0 8-3.582 8-8 0-17.673-14.327-32-32-32z" fill="#fab991"/></g></g></g><g><g><g><path d="m208 423.996c-17.673 0-32 14.327-32 32 0 4.418 3.582 8 8 8h48c4.418 0 8-3.582 8-8 0-17.673-14.327-32-32-32z" fill="#fab991"/></g></g></g><g><g><g><path d="m54.177 277.466-7.157 21.47c-3.453 10.361 4.258 21.06 15.179 21.06h131.602c10.921 0 18.632-10.699 15.179-21.06l-7.157-21.47c-1.089-3.267-4.146-5.47-7.589-5.47h-132.468c-3.443 0-6.5 2.203-7.589 5.47z" fill="#5f7dbe"/></g></g></g><path d="m100 247.996 60-120h-16l-60 120z" fill="#5055a5"/><g><g><g><path d="m128 159.996-16-32h-16l24 48z" fill="#5055a5"/></g></g></g><g><g><g><path d="m64 247.996h128v24h-128z" fill="#ffc33c"/></g></g></g><g><g><g><path d="m463.989 464.004c-13.709 0-26.388-8.877-30.596-22.67l-39.864-130.667c-5.157-16.904 4.366-34.788 21.27-39.945 16.903-5.155 34.788 4.366 39.945 21.27l39.864 130.667c5.157 16.904-4.366 34.788-21.27 39.945-3.111.948-6.257 1.4-9.349 1.4z" fill="#5055a5"/></g></g></g><g><g><g><path d="m304.011 464.004c-3.093 0-6.237-.452-9.349-1.401-16.904-5.157-26.426-23.042-21.27-39.945l40-131.111c5.158-16.903 23.043-26.424 39.945-21.27 16.904 5.157 26.426 23.042 21.27 39.945l-40 131.111c-4.208 13.793-16.888 22.671-30.596 22.671z" fill="#5055a5"/></g></g></g><g><g><g><path d="m320 127.996h128v146.667h-128z" fill="#5f7dbe"/></g></g></g><g><g><g><path d="m472 191.996h-24c-4.418 0-8-3.582-8-8v-48c0-4.418 3.582-8 8-8h24c4.418 0 8 3.582 8 8v48c0 4.418-3.582 8-8 8z" fill="#5055a5"/></g></g></g><g><g><g><path d="m384 159.996-16-32h32z" fill="#f0915a"/></g></g></g><g><g><g><path d="m288 223.996h32v-96c-17.673 0-32 14.327-32 32z" fill="#5055a5"/></g></g></g><g><g><g><path d="m472 159.996h-32v-24c0-4.418 3.582-8 8-8h24c4.418 0 8 3.582 8 8v16c0 4.418-3.582 8-8 8z" fill="#fab991"/></g></g></g><g><g><g><path d="m453.333 167.996h-5.333c-4.418 0-8-3.582-8-8h21.333c0 4.418-3.581 8-8 8z" fill="#f0915a"/></g></g></g><g><g><g><path d="m304 423.996c-17.673 0-32 14.327-32 32 0 4.418 3.582 8 8 8h48c4.418 0 8-3.582 8-8 0-17.673-14.327-32-32-32z" fill="#fab991"/></g></g></g><g><g><g><path d="m464 423.996c-17.673 0-32 14.327-32 32 0 4.418 3.582 8 8 8h48c4.418 0 8-3.582 8-8 0-17.673-14.327-32-32-32z" fill="#fab991"/></g></g></g><g><g><g><path d="m310.177 277.466-7.157 21.47c-3.454 10.361 4.258 21.06 15.179 21.06h131.602c10.921 0 18.632-10.699 15.179-21.06l-7.157-21.47c-1.089-3.267-4.146-5.47-7.589-5.47h-132.468c-3.443 0-6.5 2.203-7.589 5.47z" fill="#5f7dbe"/></g></g></g><path d="m356 247.996 60-120h-16l-60 120z" fill="#5055a5"/><g><g><g><path d="m384 159.996-16-32h-16l24 48z" fill="#5055a5"/></g></g></g><g><g><g><path d="m320 247.996h128v24h-128z" fill="#ffc33c"/></g></g></g><g><g><g><path d="m96 87.996c4.418 0 8-3.582 8-8v-8c0-4.418 3.582-8 8-8h32c4.418 0 8 3.582 8 8v8c0 4.418 3.582 8 8 8v-24c0-8.837-7.163-16-16-16h-32c-8.837 0-16 7.163-16 16z" fill="#464646"/></g></g></g><g><g><g><path d="m400 127.996h-32c-8.837 0-16-7.163-16-16v-48c0-8.837 7.163-16 16-16h32c8.837 0 16 7.163 16 16v48c0 8.836-7.163 16-16 16z" fill="#fab991"/></g></g></g><g><g><g><path d="m352 87.996c4.418 0 8-3.582 8-8v-8c0-4.418 3.582-8 8-8h32c4.418 0 8 3.582 8 8v8c0 4.418 3.582 8 8 8v-24c0-8.837-7.163-16-16-16h-32c-8.837 0-16 7.163-16 16z" fill="#464646"/></g></g></g><g><g><g><path d="m312 215.996h-32v24c0 4.418 3.582 8 8 8h24c4.418 0 8-3.582 8-8v-16c0-4.418-3.582-8-8-8z" fill="#fab991"/></g></g></g><g><g><g><path d="m293.333 207.996h-5.333c-4.418 0-8 3.582-8 8h21.333c0-4.418-3.581-8-8-8z" fill="#f0915a"/></g></g></g></g></svg>