<svg version="1.1" id="Capa_1" xmlns="http://www.w3.org/2000/svg" xmlns:xlink="http://www.w3.org/1999/xlink" x="0px" y="0px" viewBox="0 0 512 512" style="enable-background:new 0 0 512 512;" xml:space="preserve">
<g>
	<g>
		<path style="fill:#FFCBBE;" d="M342.657,266.83c0,0,37.634,35.914,48.408,82.849c-41.741,27.447-101.775,2.256-101.775,2.256&#10;&#9;&#9;&#9;L342.657,266.83z"/>
		<path style="fill:#FFDDCF;" d="M213.06,186.436c-5.117,10.385-14.455,28.7-14.455,28.7l-31.285,10.15&#10;&#9;&#9;&#9;c-22.37-25.77-32.92-60.34-28.01-94.86l6.29-44.2c2.33-16.4,17.52-27.81,33.92-25.48c16.41,2.33,27.81,17.52,25.48,33.92&#10;&#9;&#9;&#9;l-6.28,44.2C196.25,156.226,201.65,173.596,213.06,186.436z"/>
		<path style="fill:#FFCBBE;" d="M256.18,258.456c-5.02,6.58-12.24,10.51-19.85,11.53c-7.61,1.03-15.61-0.85-22.19-5.88&#10;&#9;&#9;&#9;l-29.15-22.23c-6.51-4.97-12.42-10.54-17.67-16.59l3.6-4.71c11.48-15.04,26.01-26.53,42.14-34.14c2.49,2.81,5.27,5.4,8.32,7.73&#10;&#9;&#9;&#9;l29.15,22.24C263.7,226.456,266.23,245.276,256.18,258.456z"/>
		<path style="fill:#FD7A6E;" d="M345.85,289.866c0,17.8-5.62,35.74-17.25,50.99l-22.97,30.11c-9.66,12.66-22.34,21.66-36.26,26.75&#10;&#9;&#9;&#9;l-0.06-26.81c-61.931-46.317-26.194-140.506,36.4-147.64l-5.19-8.13c4.22,2.19,8.3,4.78,12.21,7.76&#10;&#9;&#9;&#9;C334.44,239.456,345.85,264.516,345.85,289.866z"/>
		<path style="fill:#FB695B;" d="M269.31,370.906l0.06,26.81c-24.94,9.13-53.88,5.73-76.57-11.57l-101.3-12l103.27-135.38&#10;&#9;&#9;&#9;c25.22-33.05,70.11-42.22,105.75-23.63l5.19,8.13C261.1,248.436,235.67,314.166,269.31,370.906z"/>
		
			<ellipse transform="matrix(0.6065 -0.7951 0.7951 0.6065 -28.4451 429.9103)" style="fill:#FFCBBE;" cx="420.117" cy="243.693" rx="19.189" ry="21.513"/>
		
			<ellipse transform="matrix(0.6065 -0.7951 0.7951 0.6065 4.751 259.2498)" style="fill:#FFCBBE;" cx="264.296" cy="124.825" rx="19.189" ry="21.513"/>
		<path style="fill:#FFDDCF;" d="M412.81,238.186c-9.83,12.88-23.3,21.56-38.35,25.87c-110.164-18.186-101.662-139.231-33.65-162.58&#10;&#9;&#9;&#9;c17,1.56,34.25,8.02,49.38,19.56C429.28,150.856,439.41,203.306,412.81,238.186z"/>
		<path style="fill:#FFCBBE;" d="M374.46,264.056c-25.68,7.39-55.96,2.07-80.61-16.73c-39.1-29.83-49.23-82.28-22.62-117.15&#10;&#9;&#9;&#9;c16.31-21.38,42.64-31.19,69.58-28.7C293.88,147.796,280.43,217.746,374.46,264.056z"/>
		<path style="fill:#FD7A6E;" d="M361.09,100.006l-15.66,21.8c-6.06-2.68-11.89-4.65-17.4-6.04c3.021-19.377,17.4-26.891,28.94-28.3&#10;&#9;&#9;&#9;L361.09,100.006z"/>
		<path style="fill:#FB695B;" d="M356.97,87.466c-10.94,8.35-20.8,17.93-28.94,28.3c-21.96-5.53-39-1.79-46.33,3.39&#10;&#9;&#9;&#9;c0,0-15.32-9.16-22.04-14.27c0.82-1.19,1.66-2.36,2.55-3.52c19.72-25.85,54.87-35.04,89.64-29.47L356.97,87.466z"/>
		<path style="fill:#FD7A6E;" d="M443.3,239.516c-0.89,1.15-1.79,2.28-2.73,3.38c-4.75-3.64-16.44-13.47-19.88-17.71&#10;&#9;&#9;&#9;c3.33-10.23-1.8-36.42-22.24-62.16l18.404-22.079l29.906,1.909C462.43,175.526,463.48,213.056,443.3,239.516z"/>
		<path style="fill:#78CBED;" d="M504.5,350.506v61.94c0,21.6-17.51,39.11-39.11,39.11H205.44&#10;&#9;&#9;&#9;c-60.873-30.581-53.519-94.566-19.05-123.17c28.78,3.7,33.14,19.2,69.6,19.2c41.42,0,41.42-20,82.84-20c41.41,0,41.41,20,82.83,20&#10;&#9;&#9;&#9;c30.27,0,38.42-10.68,56.77-16.43C491.37,327.096,504.5,336.946,504.5,350.506z"/>
		<path style="fill:#59C2E8;" d="M205.44,451.556H46.61c-21.6,0-39.11-17.51-39.11-39.11v-61.94c0-13.56,13.13-23.41,26.07-19.35&#10;&#9;&#9;&#9;c18.35,5.75,26.5,16.43,56.76,16.43c41.42,0,41.42-20,82.83-20c4.96,0,9.32,0.29,13.23,0.8&#10;&#9;&#9;&#9;C167.57,365.066,171.39,416.456,205.44,451.556z"/>
		<path style="fill:#F9EE80;" d="M446.76,142.856l-48.31,20.17c-6.52-8.23-14.61-16.41-24.48-24.01&#10;&#9;&#9;&#9;c-9.87-7.6-19.47-13.2-28.54-17.21l3.59-27.88c5.395-11.956,12.988-16.99,23.35-16.99c13.06,4.35,25.6,10.83,36.72,19.32&#10;&#9;&#9;&#9;C425.29,108.616,438.2,125.006,446.76,142.856z"/>
		<path style="fill:#F9D171;" d="M372.37,76.936c-8.24,5.02-16.1,10.73-23.35,16.99l2.83-22.03&#10;&#9;&#9;&#9;C358.75,72.996,365.63,74.686,372.37,76.936z"/>
	</g>
	<g>
		<path style="fill:none;stroke:#000000;stroke-width:15;stroke-linecap:round;stroke-linejoin:round;stroke-miterlimit:10;" d="&#10;&#9;&#9;&#9;M388.903,341.561c-12.895-42.893-46.246-74.73-46.246-74.73"/>
		<path style="fill:none;stroke:#000000;stroke-width:15;stroke-linecap:round;stroke-linejoin:round;stroke-miterlimit:10;" d="&#10;&#9;&#9;&#9;M281.69,119.149c-3.81,3.25-7.327,6.917-10.463,11.028c-26.603,34.873-16.475,87.321,22.621,117.146&#10;&#9;&#9;&#9;c39.096,29.825,92.356,25.732,118.959-9.141c3.156-4.136,5.777-8.526,7.912-13.09"/>
		<path style="fill:none;stroke:#000000;stroke-width:15;stroke-linecap:round;stroke-linejoin:round;stroke-miterlimit:10;" d="&#10;&#9;&#9;&#9;M259.666,104.888c-4.907,0.563-9.356,2.932-12.474,6.889c-8.933,11.337,0.148,30.393,15.525,32.773"/>
		<path style="fill:none;stroke:#000000;stroke-width:15;stroke-linecap:round;stroke-linejoin:round;stroke-miterlimit:10;" d="&#10;&#9;&#9;&#9;M401.34,250.071c6.148,14.436,27.221,18.411,35.882,6.671c2.991-4.054,4.102-8.97,3.348-13.852"/>
		
			<line style="fill:none;stroke:#000000;stroke-width:15;stroke-linecap:round;stroke-linejoin:round;stroke-miterlimit:10;" x1="296.684" y1="157.015" x2="290.566" y2="165.035"/>
		
			<line style="fill:none;stroke:#000000;stroke-width:15;stroke-linecap:round;stroke-linejoin:round;stroke-miterlimit:10;" x1="380.15" y1="220.688" x2="374.032" y2="228.707"/>
		<path style="fill:none;stroke:#000000;stroke-width:15;stroke-linecap:round;stroke-linejoin:round;stroke-miterlimit:10;" d="&#10;&#9;&#9;&#9;M321.479,188.239c0.333,5.111,2.787,10.056,7.179,13.406s9.809,4.41,14.827,3.381"/>
		
			<line style="fill:none;stroke:#000000;stroke-width:15;stroke-linecap:round;stroke-linejoin:round;stroke-miterlimit:10;" x1="351.855" y1="71.899" x2="345.426" y2="121.82"/>
		
			<line style="fill:none;stroke:#000000;stroke-width:15;stroke-linecap:round;stroke-linejoin:round;stroke-miterlimit:10;" x1="398.443" y1="163.025" x2="446.756" y2="142.853"/>
		<path style="fill:none;stroke:#000000;stroke-width:15;stroke-linecap:round;stroke-linejoin:round;stroke-miterlimit:10;" d="&#10;&#9;&#9;&#9;M181.454,327.879c-2.573-0.191-5.323-0.297-8.292-0.297c-41.416,0-41.416,20-82.832,20c-30.259,0-38.41-10.676-56.759-16.428&#10;&#9;&#9;&#9;C20.631,327.098,7.5,336.945,7.5,350.507v61.944c0,21.597,17.508,39.105,39.105,39.105h418.79&#10;&#9;&#9;&#9;c21.597,0,39.105-17.508,39.105-39.105v-61.945c0-13.562-13.131-23.408-26.072-19.352c-18.351,5.752-26.502,16.429-56.765,16.429&#10;&#9;&#9;&#9;c-41.418,0-41.418-20-82.837-20c-41.417,0-41.417,20-82.833,20c-20.308,0-30.658-4.809-40.815-9.71"/>
		<path style="fill:none;stroke:#000000;stroke-width:15;stroke-linecap:round;stroke-linejoin:round;stroke-miterlimit:10;" d="&#10;&#9;&#9;&#9;M394.41,86.647c-46.419-25.806-107.574-21.955-134.746,18.238c6.713,5.107,22.034,14.267,22.034,14.267&#10;&#9;&#9;&#9;c11.925-8.427,49.555-13.034,92.271,19.862c40.774,31.4,51.126,72.668,46.725,86.174c3.441,4.236,15.126,14.064,19.88,17.705&#10;&#9;&#9;&#9;c31.606-36.834,18.875-97.029-18.336-135.02"/>
		<path style="fill:none;stroke:#000000;stroke-width:15;stroke-linecap:round;stroke-linejoin:round;stroke-miterlimit:10;" d="&#10;&#9;&#9;&#9;M336.88,327.598c9.661-19.171,11.371-40.908,5.749-60.782"/>
		<path style="fill:none;stroke:#000000;stroke-width:15;stroke-linecap:round;stroke-linejoin:round;stroke-miterlimit:10;" d="&#10;&#9;&#9;&#9;M262.239,205.65c-25.517-0.147-50.795,11.26-67.464,33.112l-80.841,105.972"/>
		<path style="fill:none;stroke:#000000;stroke-width:15;stroke-linecap:round;stroke-linejoin:round;stroke-miterlimit:10;" d="&#10;&#9;&#9;&#9;M240.131,208.474l-18.753-14.306c-16.985-12.957-25.668-34.145-22.661-55.297l6.284-44.2c2.332-16.404-9.075-31.592-25.478-33.924&#10;&#9;&#9;&#9;c-16.407-2.333-31.592,9.075-33.925,25.479l-6.284,44.2c-6.062,42.629,11.439,85.333,45.673,111.448l4.687,3.575"/>
	</g>
</g>
<g>
</g>
<g>
</g>
<g>
</g>
<g>
</g>
<g>
</g>
<g>
</g>
<g>
</g>
<g>
</g>
<g>
</g>
<g>
</g>
<g>
</g>
<g>
</g>
<g>
</g>
<g>
</g>
<g>
</g>
</svg>