<svg id="Capa_1" enable-background="new 0 0 512 512" viewBox="0 0 512 512" xmlns="http://www.w3.org/2000/svg"><g><path d="m342.649 226.199 1.152-3.579c1.639-5.094 1.194-10.519-1.253-15.277s-6.603-8.275-11.7-9.904l-23.294-7.439h101.446v20h82.614l2.461-1c-26.05-107.312-122.75-187-238.075-187-134.641 0-243.898 108.613-244.975 243l4.083 1h338.578z" fill="#c8effe"/><path d="m405.383 169c2.82-2.361 4.617-5.905 4.617-9.87v-8.259c0-7.108-5.762-12.87-12.87-12.87l-1.871-1h-91.126c-1.515 11.815-6.216 22.81-13.585 32h114.835z" fill="#fff"/><path d="m405.383 169c2.82-2.361 4.617-5.905 4.617-9.87v-8.259c0-7.108-5.762-12.87-12.87-12.87l-1.871-1h-91.126c-1.515 11.815-6.216 22.81-13.585 32h114.835z" fill="#fff"/><g><path d="m397.13 138-1.871-1h-16.259v32h26.383c2.82-2.361 4.617-5.905 4.617-9.87v-8.259c0-7.109-5.762-12.871-12.87-12.871z" fill="#faf7f7"/></g><g><path d="m105.401 178.464c.202.485.398.971.591 1.456l.929 2.338.929-2.338c.193-.486.39-.971.591-1.456 4.643-11.209 11.119-21.33 18.818-29.662-2.865-15.807-9.281-29.741-18.041-40.198-1.193-1.423-3.4-1.423-4.592 0-8.761 10.457-15.176 24.392-18.042 40.199 7.699 8.331 14.174 18.452 18.817 29.661z" fill="#81b823"/></g><g><path d="m112.991 168.888c4.003-7.423 8.83-14.201 14.268-20.086-2.865-15.807-9.281-29.741-18.041-40.198-1.193-1.423-3.4-1.423-4.592 0-2.018 2.408-3.911 5.001-5.665 7.759 8.75 13.754 14.039 31.611 14.039 51.137 0 .464-.003.926-.009 1.388z" fill="#78a91f"/></g><g><path d="m73.387 210h40.548c-.709-10.402-3.188-21.244-7.61-31.919-8.97-21.656-24.061-38.173-40.743-46.873-1.647-.859-3.686-.014-4.243 1.757-5.644 17.948-4.635 40.298 4.335 61.954 2.219 5.356 4.814 10.394 7.713 15.081z" fill="#a2e62e"/><path d="m106.325 178.081c-8.97-21.656-24.061-38.173-40.743-46.873-1.647-.859-3.686-.014-4.243 1.757-.488 1.553-.927 3.139-1.315 4.755 12.481 9.373 23.376 23.266 30.457 40.361 4.422 10.675 6.9 21.517 7.61 31.919h15.843c-.708-10.402-3.187-21.244-7.609-31.919z" fill="#97d729"/><path d="m140.456 210c2.899-4.687 5.494-9.725 7.712-15.081 8.97-21.656 9.978-44.006 4.335-61.954-.557-1.771-2.596-2.616-4.243-1.757-16.682 8.7-31.773 25.217-40.743 46.873-4.422 10.675-6.9 21.517-7.61 31.919z" fill="#8bc727"/><path d="m152.503 132.965c-.557-1.771-2.596-2.616-4.243-1.757-3.533 1.843-6.994 4.036-10.341 6.554 4.082 17.047 2.528 37.391-5.659 57.157-2.218 5.356-4.814 10.395-7.712 15.081h15.908c2.899-4.687 5.494-9.725 7.712-15.081 8.971-21.656 9.979-44.006 4.335-61.954z" fill="#81b823"/></g><path d="m136.895 266c10.139-12.348 16.921-30.81 17.903-51.721.135-2.867-2.125-5.279-4.995-5.279h-85.763c-2.87 0-5.13 2.411-4.995 5.279.982 20.911 7.764 39.373 17.903 51.721z" fill="#fff"/><path d="m136.895 266c10.139-12.348 16.921-30.81 17.903-51.721.135-2.867-2.125-5.279-4.995-5.279h-12.854c-1.302 24.331-10.452 45.278-23.589 57z" fill="#faf7f7"/><path d="m304.686 115.562v13.028c0 3.185-.253 6.323-.698 9.411h93.141c7.108 0 12.87-5.762 12.87-12.87v-8.259c0-7.108-5.762-12.87-12.87-12.87h-95.972c2.227 3.304 3.529 7.282 3.529 11.56z" fill="#f2fbff"/><path d="m304.686 115.562v13.028c0 3.185-.253 6.323-.698 9.411h93.141c7.108 0 12.87-5.762 12.87-12.87v-8.259c0-7.108-5.762-12.87-12.87-12.87h-95.972c2.227 3.304 3.529 7.282 3.529 11.56z" fill="#f2fbff"/><g><path d="m397.13 104h-18.13v34h18.13c7.108 0 12.87-5.762 12.87-12.87v-8.259c0-7.109-5.762-12.871-12.87-12.871z" fill="#dff6fd"/></g><g><path d="m472 230h-65.36c-2.206 0-4-1.794-4-4v-12c0-2.206 1.794-4 4-4h3.36v-21h-108.865l29.409 9.392c4.843 1.547 8.79 4.888 11.115 9.409 2.325 4.52 2.748 9.674 1.19 14.513l-1.244 3.864 11.043 39.822h119.352z" fill="#f6a96c"/></g><path d="m498.978 266 1.997-1c-.097-11.888-1.043-23.572-2.776-35h-27.199v36z" fill="#ea9b58"/><path d="m278.987 180.273-1.535 1.164 26.815 8.563h110.733c2.761 0 5-2.239 5-5v-12c0-2.761-2.239-5-5-5h-123.66c-3.502 4.549-7.625 8.688-12.353 12.273z" fill="#fed2a4"/><path d="m278.987 180.273-1.535 1.164 26.815 8.563h110.733c2.761 0 5-2.239 5-5v-12c0-2.761-2.239-5-5-5h-123.66c-3.502 4.549-7.625 8.688-12.353 12.273z" fill="#fed2a4"/><g><path d="m415 168h-36v22h36c2.761 0 5-2.239 5-5v-12c0-2.761-2.239-5-5-5z" fill="#ffbd86"/></g><g><path d="m472 209h-65.361c-2.761 0-5 2.239-5 5v12c0 2.761 2.239 5 5 5h65.361z" fill="#fed2a4"/></g><path d="m471 209v22h27.361c-1.097-7.449-2.534-14.785-4.286-22z" fill="#ffbd86"/><g fill="#ffe5c2"><path d="m60 401c0-7.72 6.28-14 14-14h364c7.72 0 14 6.28 14 14v13.014c30.765-40.95 49-91.851 49-147.014 0-.669-.02-1.333-.025-2h-489.95c-.005.667-.025 1.331-.025 2 0 55.163 18.235 106.064 49 147.014z"/><path d="m103.815 459c41.799 33.176 94.674 53 152.185 53s110.386-19.824 152.185-53z"/></g><g><path d="m453 401c0-8.284-6.716-15-15-15h-364c-8.284 0-15 6.716-15 15v11.665c13.164 17.774 28.671 33.708 46.073 47.335h301.854c17.402-13.628 32.909-29.561 46.073-47.335z" fill="#bd80e1"/></g><path d="m438 386h-31.364c.198 1.293.309 2.617.309 3.971v19.139c0 14.286-11.581 25.867-25.867 25.867h-6.785c-8.482 9.002-17.613 17.387-27.365 25.023h60c17.402-13.628 32.909-29.561 46.073-47.335v-11.665c-.001-8.284-6.717-15-15.001-15z" fill="#af66da"/><path d="m248.842 362.077 63.103 11.4v-59.508c-.065.006-.125.031-.191.031h-111.507c-.066 0-.126-.025-.191-.031v40.952z" fill="#ffa78f"/><path d="m311.944 373.477v-59.508c-.065.006-.125.031-.191.031h-26.208v54.708z" fill="#f89580"/><g><g><path d="m247.987 389.962 16.026-2.509v-3.717c0-.985.735-1.836 1.71-1.979l53.909-7.907-70.645-12.762-1 1.73z" fill="#ffcebf"/><path d="m125.156 411.273 28.22-7.605c2.286-.616 4.38-1.827 6.056-3.502l5.686-5.685c5.78-5.78 13.465-8.964 21.641-8.964 8.175 0 15.86 3.184 21.641 8.964l1.451 1.451 39.137-6.127v-28.717l-114.31-16.766c-15.614-2.29-29.621 9.813-29.621 25.594v19.138c0 10.908 6.751 20.238 16.303 24.041 1.119-.819 2.399-1.445 3.796-1.822z" fill="#fe646f"/><path d="m264.013 387.998-1-1.401-52.816 8.269-1.092-1.092c-5.927-5.927-13.966-9.257-22.348-9.257s-16.421 3.33-22.348 9.257l-5.685 5.685c-1.553 1.553-3.488 2.672-5.609 3.244l-28.22 7.605c-5.478 1.476-9.285 6.444-9.285 12.118 0 6.931 5.619 12.551 12.551 12.551h134.852l1-1.625z" fill="#ffa78f"/></g><g><path d="m265.578 380.768 111.745-16.39c15.614-2.29 29.621 9.813 29.621 25.594v19.139c0 14.286-11.581 25.867-25.868 25.867h-118.063v-51.241c0-1.49 1.092-2.753 2.565-2.969z" fill="#fe646f"/></g><path d="m128.162 416c-3.138 0-5.999-1.159-8.2-3.063-2.693 2.329-4.351 5.752-4.351 9.489 0 6.931 5.619 12.551 12.551 12.551h134.852l1-1.625v-17.352z" fill="#f89580"/><path d="m381.077 416h-118.064v18.977h118.064c14.286 0 25.867-11.581 25.867-25.867v-18.977c0 14.286-11.581 25.867-25.867 25.867z" fill="#fd4755"/></g><g><g><path d="m146.743 307.728c-.501 1.805-1.498 3.434-2.879 4.699l-17.465 16.01c1.777.564 3.341 1.757 4.33 3.406l.857 1.428.857-1.428c1.398-2.329 3.933-3.776 6.616-3.776.224 0 .45.01.678.029 3.948.343 7.041 3.845 7.041 7.975v17.256c0 1.605-.268 3.146-.747 4.593l26.242-24.055c3.111-2.853 5.35-6.51 6.474-10.57l10.603-38.237-19.513-60.612z" fill="#f89580"/><path d="m171.706 277.931c1.497 4.649 1.599 9.635.294 14.342l-5.525 23.157c-1.125 4.06-3.363 7.717-6.474 10.57l-13.222 13v14.327c0 .476-.024 2.011-.069 3.972l25.564-23.434c3.111-2.853 5.35-6.51 6.474-10.57l10.603-38.237-19.513-60.612-7.103 25.616z" fill="#ec806b"/><g><g><path d="m93.454 327.1c3.481-.302 6.589 1.481 8.238 4.228 1.527-2.544 4.306-4.261 7.473-4.261s5.946 1.717 7.473 4.261c1.527-2.544 4.306-4.261 7.473-4.261s5.946 1.717 7.473 4.261c1.649-2.747 4.757-4.53 8.238-4.228 4.555.395 7.954 4.399 7.954 8.971v17.256c0 8.62-7.053 15.673-15.673 15.673h-30.931c-8.62 0-15.673-7.053-15.673-15.673v-17.257c.001-4.572 3.401-8.576 7.955-8.97z" fill="#ffa78f"/></g></g></g><g><path d="m365.222 353.327v-17.257c0-4.129 3.093-7.632 7.041-7.975.228-.02.454-.029.678-.029 2.683 0 5.218 1.447 6.616 3.776l.857 1.428.857-1.428c1.062-1.77 2.782-3.026 4.723-3.529l-17.821-15.972c-1.423-1.276-2.451-2.933-2.962-4.775l-23.049-83.121-19.513 60.612 10.595 38.208c1.151 4.149 3.453 7.862 6.665 10.743l24.41 21.878c.448.401.912.77 1.388 1.117-.305-1.177-.485-2.404-.485-3.676z" fill="#f89580"/><g><path d="m368.174 312.341c-1.423-1.276-2.451-2.933-2.962-4.775l-23.049-83.121-10 31.061c3.71-.156 7.509 1.948 8.716 6.302l15.338 55.312c.511 1.842 1.539 3.499 2.962 4.775l8.9 7.977c1.163-.988 2.602-1.639 4.184-1.776.228-.02.454-.029.678-.029 2.683 0 5.218 1.447 6.616 3.776l.857 1.428.857-1.428c1.062-1.77 2.782-3.026 4.723-3.529z" fill="#ec806b"/></g><g><g><path d="m418.546 327.1c-3.481-.302-6.589 1.481-8.238 4.228-1.527-2.544-4.306-4.261-7.473-4.261s-5.946 1.717-7.473 4.261c-1.527-2.544-4.306-4.261-7.473-4.261s-5.946 1.717-7.473 4.261c-1.649-2.747-4.757-4.53-8.238-4.228-4.555.395-7.954 4.399-7.954 8.971v17.256c0 8.62 7.053 15.673 15.673 15.673h30.931c8.62 0 15.673-7.053 15.673-15.673v-17.257c-.001-4.572-3.401-8.576-7.955-8.97z" fill="#ffa78f"/></g></g></g></g><path d="m256 44c9.166 0 17.85 2.102 25.597 5.848 3.711-5.168 5.903-11.5 5.903-18.348 0-17.397-14.103-31.5-31.5-31.5s-31.5 14.103-31.5 31.5c0 6.848 2.192 13.18 5.903 18.348 7.747-3.746 16.431-5.848 25.597-5.848z" fill="#685e68"/><path d="m260.588 31.5c0 4.085-.794 7.979-2.212 11.56 8.502.332 16.551 2.422 23.787 5.934 3.356-5.007 5.337-11.013 5.337-17.494 0-17.397-14.103-31.5-31.5-31.5-4.814 0-9.373 1.085-13.453 3.017 10.663 5.048 18.041 15.902 18.041 28.483z" fill="#554e56"/><path d="m205.5 120.5h1.814v-4.938c0-11.443 9.31-20.752 20.752-20.752h55.867c11.443 0 20.752 9.31 20.752 20.752v4.938h1.814c3.516 0 6.786 1.073 9.5 2.908v-20.408c0-33.137-26.863-60-60-60-33.137 0-60 26.863-60 60v20.408c2.715-1.835 5.985-2.908 9.501-2.908z" fill="#7a6d79"/><path d="m305.686 115.561v3.939h.814c3.487 0 6.743.992 9.5 2.708v-19.208c0-32.341-25.59-58.691-57.625-59.94-.005.013-.4.55-.951 1.296-1.822 2.469-1.208 5.974 1.365 7.647 15.573 10.126 28.99 22.826 30.107 42.375 9.622 2.245 16.79 10.877 16.79 21.183z" fill="#685e68"/><path d="m330.848 197.44-52.459-16.754c-1.107.819-2.234 1.608-3.389 2.356v17.827c0 10.477-8.523 19-19 19s-19-8.523-19-19v-17.827c-1.155-.748-2.283-1.537-3.389-2.356l-52.459 16.754c-10.539 3.366-16.344 14.649-12.953 25.181l29.033 90.183c.421 1.309 1.639 2.196 3.014 2.196h111.507c1.375 0 2.593-.887 3.014-2.196l29.033-90.183c3.392-10.532-2.412-21.815-12.952-25.181z" fill="#fff"/><g><path d="m330.848 197.44-52.459-16.754c-1.107.819-2.234 1.608-3.389 2.356v13.388l25.079 8.01c10.539 3.366 16.344 14.649 12.953 25.181l-27.486 85.379h26.208c1.375 0 2.593-.887 3.014-2.196l29.033-90.183c3.391-10.532-2.413-21.815-12.953-25.181z" fill="#faf7f7"/></g><path d="m258.647 190.65c-.858.259-1.749.391-2.647.391s-1.789-.132-2.647-.391c-6.156-1.862-12.011-4.681-17.353-8.279v18.497c0 11.046 8.954 20 20 20 11.046 0 20-8.954 20-20v-18.497c-5.342 3.598-11.197 6.418-17.353 8.279z" fill="#ffa78f"/><g><path d="m207.314 128.589v-9.089h-1.814c-9.941 0-18 8.059-18 18s8.059 18 18 18h7.646c-3.833-8.37-5.832-17.48-5.832-26.911z" fill="#ffb09e"/></g><path d="m253.064 191.607c1.914.579 3.959.579 5.873 0 27.052-8.181 46.75-33.296 46.75-63.018v-13.028c0-12.013-9.739-21.752-21.752-21.752h-55.867c-12.013 0-21.752 9.739-21.752 21.752v13.028c-.002 29.722 19.696 54.837 46.748 63.018z" fill="#ffcebf"/><path d="m260.5 191.112v9.756c0 8.298-5.053 15.415-12.25 18.443 2.383 1.003 5.002 1.557 7.75 1.557 11.046 0 20-8.954 20-20v-17.255c-4.77 3.139-9.973 5.675-15.5 7.499z" fill="#f89580"/><path d="m306.5 119.5h-1.814v9.089c0 9.431-1.999 18.54-5.832 26.911h7.646c9.941 0 18-8.059 18-18s-8.059-18-18-18z" fill="#f89580"/><path d="m288.896 94.378v34.211c0 19.709-8.662 39.348-22.387 51.411-3.774 3.317-6.009 6.088-6.009 11.112 26.244-8.661 45.186-33.377 45.186-62.523v-13.028c0-10.306-7.168-18.938-16.79-21.183z" fill="#ffb09e"/><g><g><path d="m233 139c-9.374 0-17-7.626-17-17 0-2.761 2.239-5 5-5s5 2.239 5 5c0 3.86 3.14 7 7 7s7-3.14 7-7c0-2.761 2.239-5 5-5s5 2.239 5 5c0 9.374-7.626 17-17 17z" fill="#f89580"/></g><g><path d="m279 139c-9.374 0-17-7.626-17-17 0-2.761 2.239-5 5-5s5 2.239 5 5c0 3.86 3.14 7 7 7s7-3.14 7-7c0-2.761 2.239-5 5-5s5 2.239 5 5c0 9.374-7.626 17-17 17z" fill="#f89580"/></g></g><g><path d="m266 173.5h-20c-2.761 0-5-2.239-5-5s2.239-5 5-5h20c2.761 0 5 2.239 5 5s-2.239 5-5 5z" fill="#f89580"/></g><g><path d="m256 157.5c-6.065 0-11-4.935-11-11s4.935-11 11-11c2.761 0 5 2.239 5 5s-2.239 5-5 5c-.551 0-1 .449-1 1s.449 1 1 1c2.761 0 5 2.239 5 5s-2.239 5-5 5z" fill="#f89580"/></g></g><g/><g/><g/><g/><g/><g/><g/><g/><g/><g/><g/><g/><g/><g/><g/></svg>